<?xml version="1.0" encoding="UTF-8" standalone="no"?>
<svg
   xmlns:dc="http://purl.org/dc/elements/1.1/"
   xmlns:cc="http://creativecommons.org/ns#"
   xmlns:rdf="http://www.w3.org/1999/02/22-rdf-syntax-ns#"
   xmlns:svg="http://www.w3.org/2000/svg"
   xmlns="http://www.w3.org/2000/svg"
   xmlns:sodipodi="http://sodipodi.sourceforge.net/DTD/sodipodi-0.dtd"
   xmlns:inkscape="http://www.inkscape.org/namespaces/inkscape"
   width="150mm"
   height="150mm"
   viewBox="0 0 150 150"
   version="1.1"
   id="svg8"
   inkscape:version="1.0.2 (e86c8708, 2021-01-15)"
   sodipodi:docname="hobby.svg">
  <defs
     id="defs2">
    <inkscape:path-effect
       effect="bspline"
       id="path-effect995"
       is_visible="true"
       lpeversion="1"
       weight="33.333333"
       steps="2"
       helper_size="0"
       apply_no_weight="true"
       apply_with_weight="true"
       only_selected="false" />
    <inkscape:path-effect
       effect="bspline"
       id="path-effect991"
       is_visible="true"
       lpeversion="1"
       weight="33.333333"
       steps="2"
       helper_size="0"
       apply_no_weight="true"
       apply_with_weight="true"
       only_selected="false" />
    <inkscape:path-effect
       effect="bspline"
       id="path-effect986"
       is_visible="true"
       lpeversion="1"
       weight="33.333333"
       steps="2"
       helper_size="0"
       apply_no_weight="true"
       apply_with_weight="true"
       only_selected="false" />
    <inkscape:path-effect
       effect="bspline"
       id="path-effect974"
       is_visible="true"
       lpeversion="1"
       weight="33.333333"
       steps="2"
       helper_size="0"
       apply_no_weight="true"
       apply_with_weight="true"
       only_selected="false" />
    <inkscape:path-effect
       effect="bspline"
       id="path-effect962"
       is_visible="true"
       lpeversion="1"
       weight="33.333333"
       steps="2"
       helper_size="0"
       apply_no_weight="true"
       apply_with_weight="true"
       only_selected="false" />
    <inkscape:path-effect
       effect="bspline"
       id="path-effect939"
       is_visible="true"
       lpeversion="1"
       weight="33.333333"
       steps="2"
       helper_size="0"
       apply_no_weight="true"
       apply_with_weight="true"
       only_selected="false" />
    <inkscape:path-effect
       effect="bspline"
       id="path-effect935"
       is_visible="true"
       lpeversion="1"
       weight="33.333333"
       steps="2"
       helper_size="0"
       apply_no_weight="true"
       apply_with_weight="true"
       only_selected="false" />
    <inkscape:path-effect
       effect="bspline"
       id="path-effect925"
       is_visible="true"
       lpeversion="1"
       weight="33.333333"
       steps="2"
       helper_size="0"
       apply_no_weight="true"
       apply_with_weight="true"
       only_selected="false" />
    <inkscape:path-effect
       effect="bspline"
       id="path-effect919"
       is_visible="true"
       lpeversion="1"
       weight="33.333333"
       steps="2"
       helper_size="0"
       apply_no_weight="true"
       apply_with_weight="true"
       only_selected="false" />
    <inkscape:path-effect
       effect="bspline"
       id="path-effect879"
       is_visible="true"
       lpeversion="1"
       weight="33.333333"
       steps="2"
       helper_size="0"
       apply_no_weight="true"
       apply_with_weight="true"
       only_selected="false" />
    <inkscape:path-effect
       effect="bspline"
       id="path-effect875"
       is_visible="true"
       lpeversion="1"
       weight="33.333333"
       steps="2"
       helper_size="0"
       apply_no_weight="true"
       apply_with_weight="true"
       only_selected="false" />
    <inkscape:path-effect
       effect="bspline"
       id="path-effect849"
       is_visible="true"
       lpeversion="1"
       weight="33.333333"
       steps="2"
       helper_size="0"
       apply_no_weight="true"
       apply_with_weight="true"
       only_selected="false" />
  </defs>
  <sodipodi:namedview
     id="base"
     pagecolor="#ffffff"
     bordercolor="#666666"
     borderopacity="1.0"
     inkscape:pageopacity="0.0"
     inkscape:pageshadow="2"
     inkscape:zoom="0.51598688"
     inkscape:cx="-53.596029"
     inkscape:cy="629.02382"
     inkscape:document-units="mm"
     inkscape:current-layer="layer3"
     inkscape:document-rotation="0"
     showgrid="false"
     inkscape:window-width="1252"
     inkscape:window-height="872"
     inkscape:window-x="0"
     inkscape:window-y="0"
     inkscape:window-maximized="0" />
  <metadata
     id="metadata5">
    <rdf:RDF>
      <cc:Work
         rdf:about="">
        <dc:format>image/svg+xml</dc:format>
        <dc:type
           rdf:resource="http://purl.org/dc/dcmitype/StillImage" />
        <dc:title />
      </cc:Work>
    </rdf:RDF>
  </metadata>
  <g
     inkscape:groupmode="layer"
     id="layer2"
     inkscape:label="background">
    <path
       style="fill:#c8e3d9;fill-opacity:1;stroke:#c8e3d9;stroke-width:1.3837;stroke-linecap:butt;stroke-linejoin:miter;stroke-miterlimit:4;stroke-dasharray:none;stroke-opacity:1"
       d="m 17.523591,79.29081 c -0.397929,-4.75648 -0.853841,-12.672094 1.505792,-20.73773 2.359632,-8.065635 7.534655,-16.280549 13.119309,-17.849941 5.584654,-1.569391 11.577895,3.506912 18.408293,3.846453 6.830397,0.339541 14.497894,-4.057287 21.643235,-7.737004 7.145341,-3.679716 13.767927,-6.642033 21.205011,-8.939363 7.437089,-2.29733 15.687669,-3.929385 21.807849,-2.718574 6.12019,1.210811 10.10915,5.26404 11.32925,10.736959 1.2201,5.472919 -0.32828,12.365301 1.99659,16.992842 2.32487,4.627541 8.52221,6.99005 11.93628,12.277865 3.41406,5.287816 4.0448,13.500146 -0.99273,19.738721 -5.03753,6.238574 -15.74272,10.503454 -22.40917,16.697232 -6.66646,6.19377 -9.29321,14.31548 -12.55786,21.0142 -3.26464,6.69873 -7.166964,11.97428 -12.832352,15.78631 -5.665387,3.81202 -13.093723,6.16053 -19.640945,3.2043 -6.547223,-2.95623 -12.213158,-11.2174 -15.500847,-20.37083 -3.287688,-9.15343 -4.196725,-19.19843 -7.646552,-23.866754 -3.449826,-4.668323 -9.44031,-3.95892 -14.912652,-4.749885 -5.472342,-0.790966 -10.4264,-3.082428 -13.073554,-5.026717 -2.647154,-1.944289 -2.987019,-3.541605 -3.384947,-8.298084 z"
       id="path917"
       inkscape:path-effect="#path-effect919"
       inkscape:original-d="m 17.581548,82.449473 c -0.45565,-7.915157 -0.911562,-15.830771 -1.367737,-23.746826 5.175592,-8.214958 10.350616,-16.429871 15.525684,-24.64572 5.993741,5.076951 11.986982,10.153254 17.980079,15.229212 7.668067,-4.396555 15.335563,-8.793385 23.002948,-13.190746 6.623249,-2.962052 13.245834,-5.924371 19.868562,-8.887313 8.251326,-1.631708 16.501906,-3.263762 24.752716,-4.89636 3.98937,4.053836 7.97833,8.107066 11.96712,12.159928 -1.54815,6.892957 -3.09651,13.785343 -4.64522,20.677548 6.19798,2.363097 12.39532,4.725605 18.59276,7.08781 0.63104,8.213108 1.26176,16.42544 1.89225,24.637493 -10.70558,4.265589 -21.41076,8.530485 -32.1169,12.795176 -2.62658,8.122495 -5.25334,16.244195 -7.88043,24.365625 -3.9022,5.27618 -7.804518,10.55174 -11.707177,15.82694 -7.428351,2.34904 -14.856684,4.69756 -22.285423,7.04566 C 65.494888,138.64687 59.828963,130.3857 54.162657,122.12395 53.25383,112.0788 52.344794,102.0338 51.435438,91.987765 45.444975,92.697653 39.454489,93.40704 33.463618,94.116019 28.509629,91.824907 23.555572,89.533442 18.601159,87.241501 18.261543,85.644571 17.921681,84.047255 17.581548,82.449473 Z"
       sodipodi:nodetypes="cccccccccccccccccccc" />
  </g>
  <g
     inkscape:label="purpleOutline"
     inkscape:groupmode="layer"
     id="layer1"
     style="display:inline">
    <path
       style="fill:none;stroke:#8ba1db;stroke-width:3.45925;stroke-linecap:butt;stroke-linejoin:miter;stroke-miterlimit:4;stroke-dasharray:none;stroke-opacity:1"
       d="m 59.740444,35.895884 c -0.248575,-1.826196 -0.08315,-4.260888 -0.82719,-7.151922 -0.744041,-2.891035 -2.398283,-6.238661 -4.962071,-8.293506 -2.563788,-2.054846 -6.037704,-2.815669 -9.263696,-3.120194 -3.225992,-0.304525 -6.203632,-0.15236 -9.51266,1.141007 -3.309027,1.293367 -6.948363,3.728007 -10.00904,6.771621 -3.060677,3.043614 -5.542046,6.695574 -7.60995,10.576075 -2.067904,3.880502 -3.722144,7.988947 -4.300959,12.630479 -0.578814,4.641533 -0.08254,9.815135 1.737623,14.608517 1.820167,4.793382 4.963227,9.206163 9.347306,13.61892 4.384078,4.412757 10.008498,8.825536 15.79859,11.792479 5.790092,2.966943 11.745362,4.488583 18.775817,4.107824 7.030456,-0.38076 15.136237,-2.663227 21.091216,-6.010816 5.954978,-3.34759 9.759737,-7.76037 12.32379,-12.172941 2.564054,-4.412571 3.88745,-8.825348 4.218507,-13.237951 0.331058,-4.412603 -0.330644,-8.825384 -1.405682,-12.55347 -1.075039,-3.728085 -2.563859,-6.771385 -4.548617,-8.902106 -1.984759,-2.130721 -4.466132,-3.348042 -7.195825,-3.957084 -2.729693,-0.609042 -5.707329,-0.609042 -8.272175,0.836652 -2.564846,1.445693 -4.715361,4.336825 -6.451571,5.630349 -1.73621,1.293523 -3.059612,0.989192 -4.217708,0.380935 C 63.298053,41.982494 62.305501,41.0695 61.478108,40.004446 60.650714,38.939393 59.989019,37.72208 59.740444,35.895884 Z"
       id="path847"
       inkscape:path-effect="#path-effect849"
       inkscape:original-d="m 59.326516,36.503281 c 0.166717,-2.4335 0.332158,-4.868191 0.496281,-7.304058 -1.653015,-3.346577 -3.307265,-6.694199 -4.962826,-10.043083 -3.472763,-0.759675 -6.94668,-1.520493 -10.421938,-2.282512 -2.976475,0.153336 -5.954114,0.305535 -8.9331,0.456504 -3.638192,2.435911 -7.277529,4.870549 -10.918214,7.304058 -2.480185,3.653281 -4.961556,7.30524 -7.444247,10.956088 -1.653028,4.109797 -3.307263,8.218244 -4.962823,12.325593 0.497564,5.174996 0.993845,10.348597 1.488842,15.521123 3.144471,4.41414 6.287536,8.826917 9.42937,13.238608 5.62594,4.414143 11.250363,8.826919 16.873617,13.238615 5.956805,1.522893 11.912074,3.044535 17.866189,4.565019 8.107405,-2.281385 16.213187,-4.563849 24.317874,-6.847552 3.806191,-4.411764 7.610949,-8.824545 11.414503,-13.238604 1.324737,-4.411772 2.648121,-8.824553 3.970267,-13.238596 -0.660431,-4.411775 -1.322146,-8.824554 -1.985145,-13.238613 -1.487586,-3.042231 -2.97641,-6.085529 -4.466541,-9.130066 -2.48017,-1.216189 -4.961544,-2.433509 -7.444259,-3.652031 -2.976456,0.0011 -5.954092,0.0011 -8.933079,0 -2.149303,2.89243 -4.299827,5.783555 -6.451673,8.673567 -1.32216,-0.303162 -2.645562,-0.607494 -3.970262,-0.913005 -0.991298,-0.911844 -1.983851,-1.824836 -2.9777,-2.739024 -0.660441,-1.216189 -1.322138,-2.433501 -1.985136,-3.652031 z" />
    <ellipse
       style="fill:none;stroke:#8ba1db;stroke-width:3.45925;stroke-linejoin:round;stroke-miterlimit:4;stroke-dasharray:none;stroke-opacity:1"
       id="path851"
       cx="38.482639"
       cy="31.481756"
       rx="5.4591122"
       ry="4.5650368" />
    <ellipse
       style="fill:none;stroke:#8ba1db;stroke-width:3.45925;stroke-linejoin:round;stroke-miterlimit:4;stroke-dasharray:none;stroke-opacity:1"
       id="path851-9"
       cx="26.07556"
       cy="44.263844"
       rx="5.4591122"
       ry="4.5650368" />
    <path
       style="fill:none;stroke:#8ba1db;stroke-width:3.45925;stroke-linecap:butt;stroke-linejoin:miter;stroke-miterlimit:4;stroke-dasharray:none;stroke-opacity:1"
       d="m 75.538362,110.68581 c 4.301051,-7.07629 12.903287,-19.858383 19.106895,-28.608142 6.203603,-8.749759 10.008363,-13.466873 12.655403,-16.358224 2.64704,-2.891351 4.13587,-3.956507 5.37703,-3.955755 1.24115,7.53e-4 2.23371,1.06591 2.48115,2.35906 0.24743,1.293151 -0.24884,2.814803 -2.64754,6.542715 -2.39869,3.727912 -6.69973,9.662338 -11.00087,15.444751 -4.301153,5.782412 -8.602189,11.41252 -12.903285,16.434015 -4.301096,5.02151 -8.602124,9.43428 -11.497086,12.32544 -2.894962,2.89117 -4.383782,4.26065 -5.128265,4.26128 -0.744482,6.2e-4 -0.744482,-1.36884 3.556568,-8.44514 z"
       id="path873"
       inkscape:path-effect="#path-effect875"
       inkscape:original-d="m 71.237312,116.39141 c 8.603528,-12.78093 17.20576,-25.563026 25.806724,-38.346299 3.806174,-4.716117 7.610934,-9.433229 11.414494,-14.151615 1.49017,-1.064005 2.97899,-2.12917 4.46654,-3.195514 0.99387,1.066371 1.98644,2.131518 2.97772,3.195514 -0.49501,1.522896 -0.99128,3.044549 -1.48885,4.565046 -4.29994,5.935842 -8.60096,11.870279 -12.90336,17.80363 -4.299922,5.63151 -8.600967,11.261611 -12.903352,16.890638 -4.299943,4.41413 -8.600962,8.82691 -12.903365,13.2386 -1.487591,1.37071 -2.976413,2.74019 -4.466551,4.10853 0.0013,-1.36837 0.0013,-2.73783 0,-4.10853 z" />
    <path
       style="fill:none;stroke:#8ba1db;stroke-width:3.45925;stroke-linecap:butt;stroke-linejoin:miter;stroke-miterlimit:4;stroke-dasharray:none;stroke-opacity:1"
       d="m 112.75976,57.579213 c 1.15788,-1.902766 3.63931,-4.6418 5.45959,-6.087468 1.82027,-1.445668 2.97823,-1.597829 3.14299,0.152633 0.16477,1.750463 -0.66235,5.40242 -1.48949,7.912922 -0.82714,2.510502 -1.65426,3.879991 -2.97688,4.032434 -1.32261,0.152443 -3.14227,-0.91271 -4.13547,-1.977652 -0.9932,-1.064942 -1.15863,-2.130103 -7.4e-4,-4.032869 z"
       id="path877"
       inkscape:path-effect="#path-effect879"
       inkscape:original-d="m 111.43623,58.415459 c 2.4827,-2.737845 4.96414,-5.476869 7.44426,-8.217066 1.15931,-0.150978 2.31726,-0.30316 3.47397,-0.456498 -0.82587,3.653281 -1.65299,7.305239 -2.48142,10.956087 -0.82585,1.370712 -1.65299,2.740193 -2.48142,4.10853 -1.81845,-1.064017 -3.63811,-2.129169 -5.4591,-3.195528 -0.16412,-1.064015 -0.32959,-2.12917 -0.49629,-3.195525 z" />
    <ellipse
       style="fill:none;stroke:#8ba1db;stroke-width:3.45925;stroke-linejoin:round;stroke-miterlimit:4;stroke-dasharray:none;stroke-opacity:1"
       id="path851-4"
       cx="28.556982"
       cy="62.523983"
       rx="5.4591122"
       ry="4.5650368" />
    <ellipse
       style="fill:none;stroke:#8ba1db;stroke-width:3.45925;stroke-linejoin:round;stroke-miterlimit:4;stroke-dasharray:none;stroke-opacity:1"
       id="path851-0"
       cx="44.438042"
       cy="76.675591"
       rx="5.4591122"
       ry="4.5650368" />
    <ellipse
       style="fill:none;stroke:#8ba1db;stroke-width:3.45925;stroke-linejoin:round;stroke-miterlimit:4;stroke-dasharray:none;stroke-opacity:1"
       id="path851-2"
       cx="69.748444"
       cy="79.87114"
       rx="5.4591122"
       ry="4.5650368" />
    <ellipse
       style="fill:none;stroke:#8ba1db;stroke-width:3.45925;stroke-linejoin:round;stroke-miterlimit:4;stroke-dasharray:none;stroke-opacity:1"
       id="path851-41"
       cx="83.148109"
       cy="60.241493"
       rx="5.4591122"
       ry="4.5650368" />
  </g>
  <g
     inkscape:groupmode="layer"
     id="layer3"
     inkscape:label="outline" />
</svg>
