<?xml version="1.0" encoding="UTF-8" standalone="no"?>
<svg
   xmlns:dc="http://purl.org/dc/elements/1.1/"
   xmlns:cc="http://creativecommons.org/ns#"
   xmlns:rdf="http://www.w3.org/1999/02/22-rdf-syntax-ns#"
   xmlns:svg="http://www.w3.org/2000/svg"
   xmlns="http://www.w3.org/2000/svg"
   xmlns:sodipodi="http://sodipodi.sourceforge.net/DTD/sodipodi-0.dtd"
   xmlns:inkscape="http://www.inkscape.org/namespaces/inkscape"
   width="150mm"
   height="150mm"
   viewBox="0 0 150 150"
   version="1.1"
   id="svg8"
   inkscape:version="1.0.2 (e86c8708, 2021-01-15)"
   sodipodi:docname="selfcare.svg">
  <defs
     id="defs2">
    <inkscape:path-effect
       effect="bspline"
       id="path-effect1019"
       is_visible="true"
       lpeversion="1"
       weight="33.333333"
       steps="2"
       helper_size="0"
       apply_no_weight="true"
       apply_with_weight="true"
       only_selected="false" />
    <inkscape:path-effect
       effect="bspline"
       id="path-effect1014"
       is_visible="true"
       lpeversion="1"
       weight="33.333333"
       steps="2"
       helper_size="0"
       apply_no_weight="true"
       apply_with_weight="true"
       only_selected="false" />
    <inkscape:path-effect
       effect="bspline"
       id="path-effect1010"
       is_visible="true"
       lpeversion="1"
       weight="33.333333"
       steps="2"
       helper_size="0"
       apply_no_weight="true"
       apply_with_weight="true"
       only_selected="false" />
    <inkscape:path-effect
       effect="bspline"
       id="path-effect1005"
       is_visible="true"
       lpeversion="1"
       weight="33.333333"
       steps="2"
       helper_size="0"
       apply_no_weight="true"
       apply_with_weight="true"
       only_selected="false" />
    <inkscape:path-effect
       effect="bspline"
       id="path-effect1001"
       is_visible="true"
       lpeversion="1"
       weight="33.333333"
       steps="2"
       helper_size="0"
       apply_no_weight="true"
       apply_with_weight="true"
       only_selected="false" />
    <inkscape:path-effect
       effect="bspline"
       id="path-effect992"
       is_visible="true"
       lpeversion="1"
       weight="33.333333"
       steps="2"
       helper_size="0"
       apply_no_weight="true"
       apply_with_weight="true"
       only_selected="false" />
    <inkscape:path-effect
       effect="bspline"
       id="path-effect969"
       is_visible="true"
       lpeversion="1"
       weight="33.333333"
       steps="2"
       helper_size="0"
       apply_no_weight="true"
       apply_with_weight="true"
       only_selected="false" />
    <inkscape:path-effect
       effect="bspline"
       id="path-effect965"
       is_visible="true"
       lpeversion="1"
       weight="33.333333"
       steps="2"
       helper_size="0"
       apply_no_weight="true"
       apply_with_weight="true"
       only_selected="false" />
    <inkscape:path-effect
       effect="bspline"
       id="path-effect961"
       is_visible="true"
       lpeversion="1"
       weight="33.333333"
       steps="2"
       helper_size="0"
       apply_no_weight="true"
       apply_with_weight="true"
       only_selected="false" />
    <inkscape:path-effect
       effect="bspline"
       id="path-effect957"
       is_visible="true"
       lpeversion="1"
       weight="33.333333"
       steps="2"
       helper_size="0"
       apply_no_weight="true"
       apply_with_weight="true"
       only_selected="false" />
    <inkscape:path-effect
       effect="bspline"
       id="path-effect951"
       is_visible="true"
       lpeversion="1"
       weight="33.333333"
       steps="2"
       helper_size="0"
       apply_no_weight="true"
       apply_with_weight="true"
       only_selected="false" />
    <inkscape:path-effect
       effect="bspline"
       id="path-effect904"
       is_visible="true"
       lpeversion="1"
       weight="33.333333"
       steps="2"
       helper_size="0"
       apply_no_weight="true"
       apply_with_weight="true"
       only_selected="false" />
    <inkscape:path-effect
       effect="bspline"
       id="path-effect869"
       is_visible="true"
       lpeversion="1"
       weight="33.333333"
       steps="2"
       helper_size="0"
       apply_no_weight="true"
       apply_with_weight="true"
       only_selected="false" />
    <inkscape:path-effect
       effect="bspline"
       id="path-effect865"
       is_visible="true"
       lpeversion="1"
       weight="33.333333"
       steps="2"
       helper_size="0"
       apply_no_weight="true"
       apply_with_weight="true"
       only_selected="false" />
    <inkscape:path-effect
       effect="bspline"
       id="path-effect861"
       is_visible="true"
       lpeversion="1"
       weight="33.333333"
       steps="2"
       helper_size="0"
       apply_no_weight="true"
       apply_with_weight="true"
       only_selected="false" />
    <inkscape:path-effect
       effect="bspline"
       id="path-effect857"
       is_visible="true"
       lpeversion="1"
       weight="33.333333"
       steps="2"
       helper_size="0"
       apply_no_weight="true"
       apply_with_weight="true"
       only_selected="false" />
    <inkscape:path-effect
       effect="bspline"
       id="path-effect853"
       is_visible="true"
       lpeversion="1"
       weight="33.333333"
       steps="2"
       helper_size="0"
       apply_no_weight="true"
       apply_with_weight="true"
       only_selected="false" />
    <inkscape:path-effect
       effect="bspline"
       id="path-effect849"
       is_visible="true"
       lpeversion="1"
       weight="33.333333"
       steps="2"
       helper_size="0"
       apply_no_weight="true"
       apply_with_weight="true"
       only_selected="false" />
  </defs>
  <sodipodi:namedview
     id="base"
     pagecolor="#ffffff"
     bordercolor="#666666"
     borderopacity="1.0"
     inkscape:pageopacity="0.0"
     inkscape:pageshadow="2"
     inkscape:zoom="0.64682472"
     inkscape:cx="265.62947"
     inkscape:cy="312.76416"
     inkscape:document-units="mm"
     inkscape:current-layer="layer2"
     inkscape:document-rotation="0"
     showgrid="false"
     inkscape:window-width="1252"
     inkscape:window-height="872"
     inkscape:window-x="0"
     inkscape:window-y="0"
     inkscape:window-maximized="0" />
  <metadata
     id="metadata5">
    <rdf:RDF>
      <cc:Work
         rdf:about="">
        <dc:format>image/svg+xml</dc:format>
        <dc:type
           rdf:resource="http://purl.org/dc/dcmitype/StillImage" />
        <dc:title />
      </cc:Work>
    </rdf:RDF>
  </metadata>
  <g
     inkscape:groupmode="layer"
     id="layer3"
     inkscape:label="background">
    <path
       style="fill:#c8e3d9;fill-opacity:1;stroke:#c8e3d9;stroke-width:0.380488px;stroke-linecap:butt;stroke-linejoin:miter;stroke-opacity:1"
       d="m 71.803479,25.59156 c 2.294171,-2.724686 4.854792,-5.822451 8.062996,-7.508948 3.208205,-1.686498 7.063342,-1.961578 14.472178,0.07942 7.408837,2.040998 18.370367,6.397628 23.851237,8.575987 5.48088,2.178359 5.48088,2.178359 5.51025,4.143656 0.0294,1.965297 0.0881,5.895272 2.53373,9.075635 2.44562,3.180362 7.27724,5.610828 10.31908,11.875664 3.04184,6.264836 4.29384,16.363027 1.35486,24.933144 -2.93898,8.570116 -10.06864,15.611661 -13.96094,22.889471 -3.89231,7.277811 -4.54707,14.791081 -8.9178,22.256071 -4.37073,7.46498 -12.4571,14.88161 -20.912103,16.51859 -8.455004,1.63697 -17.278334,-2.50574 -26.118975,-5.65179 -8.840641,-3.14604 -17.697504,-5.29488 -23.619674,-10.40784 -5.92217,-5.11297 -8.909045,-13.18989 -10.871801,-20.67179 -1.962756,-7.481902 -2.901056,-14.367975 -0.517534,-19.250509 2.383522,-4.882533 8.088593,-7.760766 13.408045,-11.47615 5.319452,-3.715383 10.253109,-8.267752 13.365039,-14.732726 3.111929,-6.464974 4.401864,-14.842152 6.060734,-20.206923 1.65887,-5.36477 3.686506,-7.716277 5.980678,-10.440962 z"
       id="path1008"
       inkscape:path-effect="#path-effect1010"
       inkscape:original-d="m 71.537023,25.964647 c 2.56107,-3.097407 5.121689,-6.195173 7.681959,-9.293413 3.855728,-0.274698 7.710865,-0.549778 11.565873,-0.825273 10.962545,4.357293 21.924075,8.713923 32.885915,13.070417 3.4e-4,4e-4 3.4e-4,4e-4 0,0 0.0591,3.930589 0.11795,7.860562 0.17621,11.790377 4.83243,2.431078 9.66404,4.861553 14.49568,7.291819 1.25241,10.099201 2.50442,20.197391 3.75615,30.295796 -7.12961,7.04224 -14.25926,14.083793 -21.38943,21.125085 -0.65435,7.513985 -1.30922,15.027245 -1.96432,22.540245 -8.08634,7.41736 -16.1727,14.83399 -24.259601,22.25032 -8.823583,-4.14261 -17.646912,-8.28533 -26.471322,-12.42878 -8.856859,-2.14852 -17.713721,-4.29736 -26.571103,-6.44664 -2.986698,-8.07702 -5.973577,-16.15394 -8.960994,-24.23176 -0.937971,-6.885954 -1.876276,-13.772026 -2.814959,-20.658642 5.705671,-2.877921 11.410742,-5.756154 17.115555,-8.634869 4.934235,-4.552118 9.867892,-9.104487 14.801398,-13.6575 1.29042,-8.377287 2.580355,-16.754465 3.869955,-25.132519 2.028117,-2.351183 4.055753,-4.70269 6.083034,-7.054663 z"
       sodipodi:nodetypes="ccccccccccccccccccc" />
  </g>
  <g
     inkscape:label="purpleoutline"
     inkscape:groupmode="layer"
     id="layer1"
     style="display:inline">
    <path
       style="fill:none;stroke:#8ba1db;stroke-width:3.8541;stroke-linecap:butt;stroke-linejoin:miter;stroke-miterlimit:4;stroke-dasharray:none;stroke-opacity:1"
       d="m 20.263348,66.543788 c 0.353179,2.850354 0.353179,8.550652 0.908566,13.487595 0.555388,4.936943 1.66599,9.110293 3.534005,12.774782 1.868015,3.664488 4.493073,6.819945 7.673597,9.161035 3.180524,2.34109 6.916189,3.86793 12.721756,4.58036 5.805567,0.71243 13.680744,0.61064 20.294058,0.50884 6.613314,-0.10179 11.964397,-0.20358 16.255444,-0.50898 4.291047,-0.3054 7.52189,-0.81434 10.399311,-1.98496 2.877421,-1.17061 5.401518,-3.00282 7.42077,-5.293042 2.019255,-2.290222 3.533715,-5.03853 4.593865,-7.786834 1.06016,-2.748304 1.66594,-5.496608 1.9184,-7.634171 0.25246,-2.137562 0.1515,-3.664396 0.10101,-4.73322 -0.0505,-1.068824 -0.0505,-1.679558 0.80794,-1.934227 0.85844,-0.254668 2.57482,-0.152879 3.63472,-1.068874 1.05991,-0.915995 1.46376,-2.849987 1.11061,-4.376815 -0.35316,-1.526829 -1.46376,-2.646507 -8.43054,-3.002983 -6.966782,-0.356475 -19.789188,0.05068 -27.815972,-1.77e-4 -8.026784,-0.05086 -11.257626,-0.559803 -13.983713,-1.424941 -2.726086,-0.865139 -4.947289,-2.086606 -7.521963,-3.817036 -2.574674,-1.73043 -5.502624,-3.969787 -8.026772,-5.547625 -2.524148,-1.577838 -4.644389,-2.493941 -7.7744,-3.104781 -3.13001,-0.61084 -7.26953,-0.916206 -10.853869,-1.018018 -3.584339,-0.101812 -6.613252,-2.3e-5 -8.582245,0.356228 -1.968992,0.356251 -2.877666,0.966984 -3.28156,1.985158 -0.403893,1.018174 -0.30293,2.443219 0.303056,3.766511 0.605985,1.323291 1.716587,2.544758 2.625294,3.15529 0.908707,0.610532 1.615453,0.610531 1.968632,3.460885 z"
       id="path847"
       inkscape:path-effect="#path-effect849"
       inkscape:original-d="m 20.616527,63.693434 c 4.06e-4,5.700708 4.06e-4,11.401006 0,17.100894 1.111053,4.173924 2.221655,8.347274 3.331873,12.520297 2.62557,3.155998 5.250629,6.311455 7.875337,9.466565 3.736217,1.52731 7.47188,3.05415 11.207208,4.5806 7.875899,-0.10143 15.751076,-0.20318 23.626006,-0.30538 5.3517,-0.10143 10.702784,-0.20316 16.053567,-0.30538 3.231377,-0.50854 6.462221,-1.01748 9.692714,-1.52685 2.524611,-1.83187 5.048712,-3.66407 7.572441,-5.496727 1.514917,-2.747991 3.029387,-5.496296 4.543467,-8.245064 0.60621,-2.748005 1.212,-5.496307 1.81738,-8.245074 -0.10058,-1.526488 -0.20152,-3.053323 -0.30289,-4.580598 4.1e-4,-0.610348 4.1e-4,-1.221082 0,-1.832238 1.71686,0.102218 3.43324,0.203992 5.14926,0.305374 0.40428,-1.933657 0.80813,-3.86765 1.21159,-5.802089 -1.11024,-1.119316 -2.22084,-2.238995 -3.33187,-3.359105 C 96.240091,68.376241 83.417686,68.7834 70.594618,69.190151 67.364051,68.681598 64.133209,68.17265 60.901899,67.663288 58.68101,66.44218 56.459806,65.220715 54.23815,63.99881 c -2.927658,-2.23904 -5.855609,-4.478395 -8.784026,-6.718208 -2.119917,-0.915728 -4.240159,-1.83183 -6.360848,-2.748361 -4.139274,-0.304968 -8.278794,-0.610334 -12.418797,-0.916118 -3.028633,0.102197 -6.057546,0.203993 -9.086925,0.305375 -0.908305,0.611166 -1.816978,1.2219 -2.72608,1.832238 0.101373,1.425513 0.202336,2.850559 0.302897,4.275223 1.111053,1.22193 2.221656,2.443396 3.331873,3.664476 0.707179,4.11e-4 1.413925,4.11e-4 2.120283,-10e-7 z" />
    <path
       style="fill:none;stroke:#000000;stroke-width:0.317756px;stroke-linecap:butt;stroke-linejoin:miter;stroke-opacity:1"
       d="m -4.9105622,64.232521 c 0,0 0,0 0,0 z"
       id="path851"
       inkscape:path-effect="#path-effect853"
       inkscape:original-d="m -4.9105622,64.232521 c 3.232e-4,3.12e-4 3.232e-4,3.12e-4 0,0 z" />
    <path
       style="fill:none;stroke:#8ba1db;stroke-width:3.8541;stroke-linecap:butt;stroke-linejoin:miter;stroke-miterlimit:4;stroke-dasharray:none;stroke-opacity:1"
       d="m 29.097656,100.94895 c -0.807754,0.91616 -1.61548,1.83228 -2.170813,3.00302 -0.555333,1.17075 -0.858226,2.5958 -0.95914,3.91916 -0.100914,1.32336 5e-5,2.54482 0.05052,3.35914 0.05046,0.81432 0.05046,1.22148 -0.555109,1.3231 -0.605574,0.10162 -1.817144,-0.10195 -2.725996,-0.0511 -0.908851,0.0508 -1.51463,0.35618 -1.868109,1.06896 -0.353478,0.71277 -0.454441,1.83244 -0.100815,2.74858 0.353626,0.91614 1.161325,1.62865 2.322434,1.98473 1.16111,0.35608 2.675567,0.35608 3.937551,0.15245 1.261984,-0.20363 2.27162,-0.61079 2.927771,-1.6794 0.65615,-1.06862 0.959039,-2.79902 1.211458,-4.275 0.25242,-1.47599 0.454351,-2.69747 0.656334,-3.91926"
       id="path855"
       inkscape:path-effect="#path-effect857"
       inkscape:original-d="m 29.097656,100.94895 c -0.807317,0.91654 -1.615047,1.83266 -2.423177,2.74837 -0.302499,1.4255 -0.60539,2.85055 -0.908695,4.27521 0.101373,1.22193 0.202339,2.44339 0.302899,3.66447 4.06e-4,0.40759 4.06e-4,0.81475 0,1.2215 -1.211206,-0.20316 -2.422774,-0.40675 -3.634769,-0.61074 -0.605404,0.30579 -1.211184,0.61115 -1.817386,0.91611 -0.100565,1.12014 -0.201525,2.23981 -0.302898,3.35911 0.80815,0.71298 1.61586,1.42548 2.42318,2.13761 1.514923,4.2e-4 3.02938,4.2e-4 4.543463,0 1.010086,-0.40676 2.019721,-0.81392 3.028976,-1.2215 0.30331,-1.73007 0.606199,-3.46047 0.908691,-5.19133 0.202343,-1.22111 0.404271,-2.44259 0.605797,-3.66446" />
    <path
       style="fill:none;stroke:#8ba1db;stroke-width:3.8541;stroke-linecap:butt;stroke-linejoin:miter;stroke-miterlimit:4;stroke-dasharray:none;stroke-opacity:1"
       d="m 98.764086,101.55971 c 0.80798,1.52734 1.615714,3.05422 2.019454,4.58105 0.40373,1.52684 0.40373,3.05368 0.50493,3.86792 0.1012,0.81425 0.30315,0.91605 1.11088,1.06864 0.80773,0.15259 2.22121,0.35617 3.33179,1.01802 1.11058,0.66186 1.91829,1.78153 2.12,2.85023 0.2017,1.06869 -0.20215,2.08658 -1.21158,2.64631 -1.00943,0.55973 -2.62487,0.66153 -4.03837,0.66156 -1.41351,3e-5 -2.625071,-0.10177 -3.685282,-0.8141 -1.06021,-0.71234 -1.968889,-2.0356 -2.473867,-3.6643 -0.504979,-1.6287 -0.605939,-3.56268 -0.706923,-5.49714"
       id="path859"
       inkscape:path-effect="#path-effect861"
       inkscape:original-d="m 98.764086,101.55971 c 0.808125,1.52726 1.615864,3.05414 2.423184,4.58058 4e-4,1.52731 4e-4,3.05415 0,4.58061 0.20234,0.10215 0.40427,0.20399 0.60578,0.30536 1.41398,0.20401 2.82746,0.40758 4.24058,0.61074 0.80815,1.12015 1.61587,2.23982 2.42318,3.35909 -0.40347,1.01837 -0.80731,2.03626 -1.21159,3.05375 -1.61507,0.10216 -3.2305,0.20399 -4.84636,0.30539 -1.21121,-0.10143 -2.422773,-0.20318 -3.634774,-0.30539 -0.908297,-1.3229 -1.816977,-2.64616 -2.726082,-3.96985 -0.100576,-1.93367 -0.201524,-3.86765 -0.302886,-5.80209" />
    <path
       style="fill:none;stroke:#8ba1db;stroke-width:3.8541;stroke-linecap:butt;stroke-linejoin:miter;stroke-miterlimit:4;stroke-dasharray:none;stroke-opacity:1"
       d="m 32.126636,53.310754 c 0.302827,-1.32298 0.605725,-2.646267 1.716444,-3.969743 1.11072,-1.323476 3.02903,-2.646732 4.796152,-2.90105 1.767122,-0.254318 3.382543,0.559994 4.240541,1.323541 0.857998,0.763548 0.958962,1.476067 1.514233,1.221372 0.555272,-0.254696 1.564911,-1.476165 2.776777,-1.883276 1.211866,-0.407112 2.625357,4.2e-5 3.735915,0.763648 1.110558,0.763606 1.918267,1.883283 2.372435,1.73054 0.454167,-0.152743 0.555131,-1.577788 1.615421,-2.646829 1.060289,-1.069042 3.079566,-1.781566 4.796108,-1.577754 1.716541,0.203811 3.130037,1.32349 3.836573,2.697712 0.706536,1.374221 0.706536,3.002844 0.403593,4.376903 -0.302943,1.37406 -0.908725,2.493739 -0.706664,2.798994 0.20206,0.305256 1.211698,-0.203691 2.221508,-0.40721 1.009811,-0.20352 2.019448,-0.10173 2.978603,0.458324 0.959155,0.560054 1.867829,1.577946 2.271459,2.239498 0.403629,0.661552 0.302664,0.96692 0.656126,0.81408 0.353462,-0.152841 1.161168,-0.763572 2.070081,-0.763398 0.908913,1.74e-4 1.91855,0.610907 2.776486,0.152778 0.857935,-0.458129 1.564681,-1.984961 2.776447,-3.053906 1.211766,-1.068945 2.928148,-1.679678 4.64471,-1.475902 1.716562,0.203776 3.432944,1.221665 4.240417,2.443217 0.807473,1.221553 0.706511,2.646599 1.009444,3.053556 0.302933,0.406957 1.009681,-0.203779 2.120494,-0.560047 1.110814,-0.356268 2.625266,-0.458058 3.786348,0.102052 1.161081,0.56011 1.968795,1.78158 2.675367,1.781416 0.706571,-1.65e-4 1.312355,-1.221631 2.574706,-1.781553 1.26235,-0.559922 3.18064,-0.458134 4.79607,0.458219 1.61543,0.916352 2.92797,2.646767 3.53357,3.919111 0.60559,1.272344 0.50463,2.086657 0.4037,2.900629"
       id="path863"
       inkscape:path-effect="#path-effect865"
       inkscape:original-d="m 32.126636,53.310754 c 0.303299,-1.322872 0.606198,-2.646159 0.90869,-3.96985 1.918795,-1.322903 3.837108,-2.646156 5.755053,-3.969853 1.615892,0.814756 3.231313,1.629068 4.846359,2.442986 0.101383,0.712963 0.202339,1.425484 0.302898,2.137613 1.010085,-1.221106 2.019722,-2.442576 3.028975,-3.664476 1.41396,0.407582 2.827451,0.814735 4.240565,1.221489 0.808152,1.120137 1.61586,2.239815 2.423183,3.359104 0.101373,-1.424693 0.202337,-2.849738 0.302897,-4.275219 2.01976,-0.712144 4.039037,-1.424667 6.057948,-2.137612 1.413955,1.120134 2.827451,2.239812 4.240567,3.359101 4.05e-4,1.629099 4.05e-4,3.257722 0,4.885969 -0.605403,1.120133 -1.211183,2.239813 -1.817384,3.359109 1.010082,-0.508561 2.019722,-1.017504 3.028973,-1.526871 1.010086,0.102207 2.019723,0.203993 3.028976,0.305375 0.909115,1.018342 1.817793,2.036231 2.726076,3.053734 -0.100554,0.305787 -0.201525,0.611153 -0.302898,0.916117 0.808152,-0.610352 1.615859,-1.221082 2.423182,-1.832239 1.010085,0.61117 2.019724,1.2219 3.028975,1.832239 0.70718,-1.526489 1.413927,-3.05332 2.120282,-4.580595 1.716862,-0.610351 3.433243,-1.221085 5.149258,-1.832239 1.716861,1.01834 3.433244,2.036228 5.149256,3.05373 -0.100555,1.425511 -0.201525,2.850556 -0.302893,4.275226 0.707179,-0.610352 1.413929,-1.221086 2.120277,-1.832239 1.514931,-0.101384 3.029383,-0.203174 4.543463,-0.305375 0.808146,1.221925 1.615867,2.443391 2.423185,3.664477 0.606208,-1.221111 1.211991,-2.442577 1.817391,-3.664477 1.9188,0.102198 3.83709,0.203993 5.75504,0.305375 1.31299,1.73089 2.62553,3.461302 3.93768,5.191341 -0.10058,0.814751 -0.20154,1.629065 -0.30291,2.442982" />
    <path
       style="fill:none;stroke:#8ba1db;stroke-width:3.8541;stroke-linecap:butt;stroke-linejoin:miter;stroke-miterlimit:4;stroke-dasharray:none;stroke-opacity:1"
       d="m 37.367635,62.417463 c -6.415203,-0.0039 -13.306133,-0.008 -19.959805,-0.01204"
       id="path867"
       inkscape:path-effect="#path-effect869"
       inkscape:original-d="m 37.367635,62.417463 c -6.415203,-0.0034 -13.306133,-0.0076 -19.959805,-0.01204"
       sodipodi:nodetypes="cc" />
    <path
       style="fill:none;stroke:#8ba1db;stroke-width:3.8541;stroke-linecap:butt;stroke-linejoin:miter;stroke-miterlimit:4;stroke-dasharray:none;stroke-opacity:1"
       d="m 107.96011,77.512995 c -14.171814,-0.0039 -29.394553,-0.008 -44.093176,-0.01204"
       id="path867-9"
       inkscape:path-effect="#path-effect904"
       inkscape:original-d="m 107.96011,77.512995 c -14.171814,-0.0034 -29.394553,-0.0076 -44.093176,-0.01204"
       sodipodi:nodetypes="cc" />
    <ellipse
       style="fill:none;stroke:#8ba1db;stroke-width:3.8541;stroke-linejoin:round;stroke-miterlimit:4;stroke-dasharray:none;stroke-opacity:1"
       id="path907"
       cx="80.128906"
       cy="14.807767"
       rx="4.4457765"
       ry="4.4821115" />
    <ellipse
       style="fill:none;stroke:#8ba1db;stroke-width:3.8541;stroke-linejoin:round;stroke-miterlimit:4;stroke-dasharray:none;stroke-opacity:1"
       id="path907-5"
       cx="89.761421"
       cy="41.326923"
       rx="6.1903605"
       ry="6.1157537" />
    <ellipse
       style="fill:none;stroke:#8ba1db;stroke-width:2.99385;stroke-linejoin:round;stroke-miterlimit:4;stroke-dasharray:none;stroke-opacity:1"
       id="path907-7"
       cx="101.24635"
       cy="26.013042"
       rx="3.5157351"
       ry="3.419966" />
  </g>
  <g
     inkscape:groupmode="layer"
     id="layer2"
     inkscape:label="outline"
     style="display:inline" />
</svg>
