<svg height="480pt" viewBox="-16 0 480 480.192" width="480pt" xmlns="http://www.w3.org/2000/svg"><path d="m120.097656 256.191406c0 83.949219 68.050782 152 152 152 83.945313 0 152-68.050781 152-152v-40h-304zm0 0" fill="#9bc9ff"/><g fill="#57a4ff"><path d="m432.097656 256.191406v-88c0-13.253906-10.746094-24-24-24h-272c-13.257812 0-24 10.746094-24 24v8h-48c-35.347656 0-63.9999998 28.65625-63.9999998 64 0 35.347656 28.6523438 64 63.9999998 64h55.375c23.703125 75.339844 98.835938 122.113282 176.90625 110.128906 78.066406-11.988281 135.707032-79.144531 135.71875-158.128906zm-304-88c0-4.417968 3.578125-8 8-8h272c4.417969 0 8 3.582032 8 8v40h-288zm-16 120h-48c-26.511718 0-48-21.488281-48-48 0-26.507812 21.488282-48 48-48h48zm160 112c-79.492187-.09375-143.910156-64.507812-144-144v-32h288v32c-.09375 79.492188-64.511718 143.90625-144 144zm0 0"/><path d="m440.097656 416.191406h-336c-4.421875 0-8 3.582032-8 8 .035156 30.914063 25.085938 55.964844 56 56h240c30.910156-.035156 55.964844-25.085937 56-56 0-4.417968-3.582031-8-8-8zm-48 48h-240c-19.003906-.019531-35.378906-13.386718-39.203125-32h318.402344c-3.824219 18.613282-20.199219 31.980469-39.199219 32zm0 0"/><path d="m212.894531 112.191406 15.945313.175782c2.035156-1.769532 4.347656-3.199219 6.839844-4.230469 6.214843-3.113281 15.617187-7.816407 15.617187-18.402344 0-10.582031-9.402344-15.253906-15.625-18.398437-2.394531-1.070313-4.679687-2.359376-6.832031-3.855469 2.027344-1.777344 4.335937-3.210938 6.832031-4.234375 6.222656-3.054688 15.625-7.75 15.625-18.253906 0-10.503907-9.402344-15.28125-15.625-18.398438-2.386719-1.074219-4.675781-2.359375-6.832031-3.839844 2.03125-1.777344 4.339844-3.207031 6.832031-4.234375 6.222656-3.128906 15.625-7.792969 15.625-18.328125l-15.945313-.191406c-2.03125 1.769531-4.339843 3.195312-6.832031 4.222656-6.222656 3.113282-15.625 7.800782-15.625 18.351563 0 10.554687 9.402344 15.203125 15.625 18.347656 2.390625 1.070313 4.675781 2.355469 6.832031 3.839844-2.03125 1.773437-4.339843 3.203125-6.832031 4.230469-6.222656 3.105468-15.625 7.800781-15.625 18.351562s9.402344 15.25 15.617188 18.398438c2.402343 1.070312 4.691406 2.375 6.839843 3.890624-2.03125 1.773438-4.34375 3.203126-6.839843 4.230469-6.214844 3.082031-15.617188 7.785157-15.617188 18.328125zm0 0"/><path d="m292.894531 112.191406 15.945313.175782c2.035156-1.769532 4.347656-3.199219 6.839844-4.230469 6.214843-3.113281 15.617187-7.816407 15.617187-18.402344 0-10.582031-9.402344-15.253906-15.625-18.398437-2.394531-1.070313-4.679687-2.359376-6.832031-3.855469 2.027344-1.777344 4.335937-3.210938 6.832031-4.234375 6.222656-3.054688 15.625-7.75 15.625-18.253906 0-10.503907-9.402344-15.28125-15.625-18.398438-2.386719-1.074219-4.675781-2.359375-6.832031-3.839844 2.03125-1.777344 4.339844-3.207031 6.832031-4.234375 6.222656-3.128906 15.625-7.792969 15.625-18.328125l-15.945313-.191406c-2.03125 1.769531-4.339843 3.195312-6.832031 4.222656-6.222656 3.113282-15.625 7.800782-15.625 18.351563 0 10.554687 9.402344 15.203125 15.625 18.347656 2.390625 1.070313 4.675781 2.355469 6.832031 3.839844-2.03125 1.773437-4.339843 3.203125-6.832031 4.230469-6.222656 3.105468-15.625 7.800781-15.625 18.351562s9.402344 15.25 15.617188 18.398438c2.402343 1.070312 4.691406 2.375 6.839843 3.890624-2.03125 1.773438-4.34375 3.203126-6.839843 4.230469-6.214844 3.082031-15.617188 7.785157-15.617188 18.328125zm0 0"/></g></svg>