<?xml version="1.0" encoding="UTF-8" standalone="no"?>
<svg
   xmlns:dc="http://purl.org/dc/elements/1.1/"
   xmlns:cc="http://creativecommons.org/ns#"
   xmlns:rdf="http://www.w3.org/1999/02/22-rdf-syntax-ns#"
   xmlns:svg="http://www.w3.org/2000/svg"
   xmlns="http://www.w3.org/2000/svg"
   xmlns:sodipodi="http://sodipodi.sourceforge.net/DTD/sodipodi-0.dtd"
   xmlns:inkscape="http://www.inkscape.org/namespaces/inkscape"
   width="160mm"
   height="120mm"
   viewBox="0 0 160 120"
   version="1.1"
   id="svg8"
   inkscape:version="1.0.2 (e86c8708, 2021-01-15)"
   sodipodi:docname="drawing.svg">
  <defs
     id="defs2">
    <inkscape:path-effect
       effect="bspline"
       id="path-effect1198"
       is_visible="true"
       lpeversion="1"
       weight="33.333333"
       steps="2"
       helper_size="0"
       apply_no_weight="true"
       apply_with_weight="true"
       only_selected="false" />
    <inkscape:path-effect
       effect="bspline"
       id="path-effect1194"
       is_visible="true"
       lpeversion="1"
       weight="33.333333"
       steps="2"
       helper_size="0"
       apply_no_weight="true"
       apply_with_weight="true"
       only_selected="false" />
    <inkscape:path-effect
       effect="bspline"
       id="path-effect1189"
       is_visible="true"
       lpeversion="1"
       weight="33.333333"
       steps="2"
       helper_size="0"
       apply_no_weight="true"
       apply_with_weight="true"
       only_selected="false" />
    <inkscape:path-effect
       effect="bspline"
       id="path-effect1185"
       is_visible="true"
       lpeversion="1"
       weight="33.333333"
       steps="2"
       helper_size="0"
       apply_no_weight="true"
       apply_with_weight="true"
       only_selected="false" />
    <inkscape:path-effect
       effect="bspline"
       id="path-effect1181"
       is_visible="true"
       lpeversion="1"
       weight="33.333333"
       steps="2"
       helper_size="0"
       apply_no_weight="true"
       apply_with_weight="true"
       only_selected="false" />
    <inkscape:path-effect
       effect="bspline"
       id="path-effect1177"
       is_visible="true"
       lpeversion="1"
       weight="33.333333"
       steps="2"
       helper_size="0"
       apply_no_weight="true"
       apply_with_weight="true"
       only_selected="false" />
    <inkscape:path-effect
       effect="bspline"
       id="path-effect1169"
       is_visible="true"
       lpeversion="1"
       weight="33.333333"
       steps="2"
       helper_size="0"
       apply_no_weight="true"
       apply_with_weight="true"
       only_selected="false" />
    <inkscape:path-effect
       effect="bspline"
       id="path-effect1150"
       is_visible="true"
       lpeversion="1"
       weight="33.333333"
       steps="2"
       helper_size="0"
       apply_no_weight="true"
       apply_with_weight="true"
       only_selected="false" />
    <inkscape:path-effect
       effect="bspline"
       id="path-effect1142"
       is_visible="true"
       lpeversion="1"
       weight="33.333333"
       steps="2"
       helper_size="0"
       apply_no_weight="true"
       apply_with_weight="true"
       only_selected="false" />
    <inkscape:path-effect
       effect="bspline"
       id="path-effect1119"
       is_visible="true"
       lpeversion="1"
       weight="33.333333"
       steps="2"
       helper_size="0"
       apply_no_weight="true"
       apply_with_weight="true"
       only_selected="false" />
    <inkscape:path-effect
       effect="bspline"
       id="path-effect1115"
       is_visible="true"
       lpeversion="1"
       weight="33.333333"
       steps="2"
       helper_size="0"
       apply_no_weight="true"
       apply_with_weight="true"
       only_selected="false" />
    <inkscape:path-effect
       effect="bspline"
       id="path-effect1109"
       is_visible="true"
       lpeversion="1"
       weight="33.333333"
       steps="2"
       helper_size="0"
       apply_no_weight="true"
       apply_with_weight="true"
       only_selected="false" />
    <inkscape:path-effect
       effect="bspline"
       id="path-effect1104"
       is_visible="true"
       lpeversion="1"
       weight="33.333333"
       steps="2"
       helper_size="0"
       apply_no_weight="true"
       apply_with_weight="true"
       only_selected="false" />
    <inkscape:path-effect
       effect="bspline"
       id="path-effect1058"
       is_visible="true"
       lpeversion="1"
       weight="33.333333"
       steps="2"
       helper_size="0"
       apply_no_weight="true"
       apply_with_weight="true"
       only_selected="false" />
    <inkscape:path-effect
       effect="bspline"
       id="path-effect1035"
       is_visible="true"
       lpeversion="1"
       weight="33.333333"
       steps="2"
       helper_size="0"
       apply_no_weight="true"
       apply_with_weight="true"
       only_selected="false" />
    <inkscape:path-effect
       effect="bspline"
       id="path-effect1031"
       is_visible="true"
       lpeversion="1"
       weight="33.333333"
       steps="2"
       helper_size="0"
       apply_no_weight="true"
       apply_with_weight="true"
       only_selected="false" />
    <inkscape:path-effect
       effect="bspline"
       id="path-effect1027"
       is_visible="true"
       lpeversion="1"
       weight="33.333333"
       steps="2"
       helper_size="0"
       apply_no_weight="true"
       apply_with_weight="true"
       only_selected="false" />
    <inkscape:path-effect
       effect="bspline"
       id="path-effect1020"
       is_visible="true"
       lpeversion="1"
       weight="33.333333"
       steps="2"
       helper_size="0"
       apply_no_weight="true"
       apply_with_weight="true"
       only_selected="false" />
    <inkscape:path-effect
       effect="bspline"
       id="path-effect990"
       is_visible="true"
       lpeversion="1"
       weight="33.333333"
       steps="2"
       helper_size="0"
       apply_no_weight="true"
       apply_with_weight="true"
       only_selected="false" />
    <inkscape:path-effect
       effect="bspline"
       id="path-effect938"
       is_visible="true"
       lpeversion="1"
       weight="33.333333"
       steps="2"
       helper_size="0"
       apply_no_weight="true"
       apply_with_weight="true"
       only_selected="false" />
    <inkscape:path-effect
       effect="bspline"
       id="path-effect932"
       is_visible="true"
       lpeversion="1"
       weight="33.333333"
       steps="2"
       helper_size="0"
       apply_no_weight="true"
       apply_with_weight="true"
       only_selected="false" />
    <inkscape:path-effect
       effect="bspline"
       id="path-effect928"
       is_visible="true"
       lpeversion="1"
       weight="33.333333"
       steps="2"
       helper_size="0"
       apply_no_weight="true"
       apply_with_weight="true"
       only_selected="false" />
    <inkscape:path-effect
       effect="bspline"
       id="path-effect924"
       is_visible="true"
       lpeversion="1"
       weight="33.333333"
       steps="2"
       helper_size="0"
       apply_no_weight="true"
       apply_with_weight="true"
       only_selected="false" />
    <inkscape:path-effect
       effect="bspline"
       id="path-effect918"
       is_visible="true"
       lpeversion="1"
       weight="33.333333"
       steps="2"
       helper_size="0"
       apply_no_weight="true"
       apply_with_weight="true"
       only_selected="false" />
    <inkscape:path-effect
       effect="bspline"
       id="path-effect906"
       is_visible="true"
       lpeversion="1"
       weight="33.333333"
       steps="2"
       helper_size="0"
       apply_no_weight="true"
       apply_with_weight="true"
       only_selected="false" />
    <inkscape:path-effect
       effect="bspline"
       id="path-effect853"
       is_visible="true"
       lpeversion="1"
       weight="33.333333"
       steps="2"
       helper_size="0"
       apply_no_weight="true"
       apply_with_weight="true"
       only_selected="false" />
    <filter
       inkscape:collect="always"
       style="color-interpolation-filters:sRGB"
       id="filter965"
       x="-0.057368342"
       width="1.1147367"
       y="-0.073180817"
       height="1.1463616">
      <feGaussianBlur
         inkscape:collect="always"
         stdDeviation="0.28597376"
         id="feGaussianBlur967" />
    </filter>
    <filter
       inkscape:collect="always"
       style="color-interpolation-filters:sRGB"
       id="filter965-1"
       x="-0.057368342"
       width="1.1147367"
       y="-0.073180817"
       height="1.1463616">
      <feGaussianBlur
         inkscape:collect="always"
         stdDeviation="0.28597376"
         id="feGaussianBlur967-4" />
    </filter>
    <filter
       inkscape:collect="always"
       style="color-interpolation-filters:sRGB"
       id="filter965-1-4"
       x="-0.057368342"
       width="1.1147367"
       y="-0.073180817"
       height="1.1463616">
      <feGaussianBlur
         inkscape:collect="always"
         stdDeviation="0.28597376"
         id="feGaussianBlur967-4-4" />
    </filter>
  </defs>
  <sodipodi:namedview
     id="base"
     pagecolor="#ffffff"
     bordercolor="#666666"
     borderopacity="1.0"
     inkscape:pageopacity="0.0"
     inkscape:pageshadow="2"
     inkscape:zoom="0.95488424"
     inkscape:cx="366.60051"
     inkscape:cy="218.50277"
     inkscape:document-units="mm"
     inkscape:current-layer="layer2"
     inkscape:document-rotation="0"
     showgrid="false"
     inkscape:window-width="1252"
     inkscape:window-height="872"
     inkscape:window-x="429"
     inkscape:window-y="94"
     inkscape:window-maximized="0" />
  <metadata
     id="metadata5">
    <rdf:RDF>
      <cc:Work
         rdf:about="">
        <dc:format>image/svg+xml</dc:format>
        <dc:type
           rdf:resource="http://purl.org/dc/dcmitype/StillImage" />
        <dc:title />
      </cc:Work>
    </rdf:RDF>
  </metadata>
  <g
     inkscape:groupmode="layer"
     id="layer2"
     inkscape:label="Background"
     style="display:inline">
    <path
       style="fill:#c6745c;fill-opacity:1;stroke:#c6745c;stroke-width:0.264583px;stroke-linecap:butt;stroke-linejoin:miter;stroke-opacity:1"
       d="m 78.270593,61.796097 c -0.108451,-0.110353 -0.325665,-0.331375 -0.623364,-0.583023 -0.2977,-0.251649 -0.675382,-0.533446 -0.915184,-0.565077 -0.239802,-0.03163 -0.340983,0.187213 -0.443834,0.368031 -0.102852,0.180819 -0.207227,0.32347 -0.553737,0.101393 -0.34651,-0.222078 -0.934461,-0.807705 -1.570073,-0.897993 -0.635613,-0.09029 -1.317008,0.31597 -1.968381,0.47157 -0.651373,0.1556 -1.274503,0.06054 -1.89692,-0.03442 0,0 -0.801796,0.745206 -0.801796,0.745206 -0.721073,-0.110979 -1.442343,-0.221988 -1.959414,0.124574 -0.517071,0.346562 -0.830208,1.150298 -1.122577,1.599743 -0.292368,0.449446 -0.563748,0.544789 0.949824,0.469872 1.513572,-0.07492 4.811932,-0.319997 6.387742,-0.573924 1.575811,-0.253928 1.42859,-0.516895 1.512,-0.775161 0.08341,-0.258267 0.397165,-0.511234 0.636244,-0.558949 0.239078,-0.04772 0.401425,0.109635 0.620902,0.252727 0.219476,0.143092 0.494883,0.271173 0.663789,0.461545 0.168906,0.190373 0.231529,0.442958 0.387965,0.583758 0.156436,0.140801 0.40695,0.170007 0.556916,-0.02852 0.149967,-0.198524 0.199159,-0.624776 0.223754,-0.837889 0.02459,-0.213114 0.02459,-0.213114 -0.08386,-0.323466 z"
       id="path1192"
       inkscape:path-effect="#path-effect1194"
       inkscape:original-d="m 78.379044,61.906449 c -0.2169,-0.220707 -0.434114,-0.441729 -0.651707,-0.663133 -0.37784,-0.281848 -0.755522,-0.563644 -1.133829,-0.845975 -0.100946,0.219172 -0.202127,0.438016 -0.303552,0.656551 -0.10465,0.142916 -0.20902,0.285571 -0.31314,0.427975 -0.588852,-0.586524 -1.176804,-1.17215 -1.766216,-1.759234 -0.681626,0.406818 -1.363021,0.813077 -2.044249,1.218813 C 71.544613,60.846818 70.2991,60.656577 70.2991,60.656577 l -0.801796,0.745206 c 0,0 -1.442377,-0.221769 -2.163218,-0.332936 -0.31341,0.804016 -0.62655,1.607751 -0.93942,2.411235 -0.27167,0.09561 -0.54305,0.190951 -0.81418,0.286045 3.29824,-0.244837 6.5966,-0.489919 9.8953,-0.73526 -0.147008,-0.262796 -0.294228,-0.525764 -0.441679,-0.788936 0.314415,-0.253021 0.628171,-0.505988 0.942709,-0.760064 0.163381,0.15836 0.325728,0.31571 0.48847,0.473434 0.276161,0.128573 0.551568,0.256653 0.82676,0.384492 0.0624,0.252858 0.12499,0.505451 0.18788,0.757795 0.25026,0.02943 0.50077,0.05867 0.75154,0.08762 0.04949,-0.426246 0.09868,-0.852498 0.147578,-1.278759 2.64e-4,2.64e-4 2.64e-4,2.64e-4 0,0 z"
       sodipodi:nodetypes="ccccccccccccccccccccc" />
    <path
       style="display:inline;fill:#f5b694;fill-opacity:1;stroke:#f5b694;stroke-width:0.226919px;stroke-linecap:butt;stroke-linejoin:miter;stroke-opacity:1"
       d="m 13.837158,112.85517 c 0.240872,-4.32756 0.594828,-8.85588 1.116741,-12.57925 0.521912,-3.723365 1.211245,-6.637349 2.249635,-7.433936 1.03839,-0.796587 2.42568,0.524383 4.385541,1.762311 1.959862,1.237929 4.492148,2.39277 4.424536,5.372269 -0.06761,2.979496 -2.734795,7.783166 -4.147966,11.711666 -1.41317,3.92849 -1.572582,6.98196 -2.225584,9.04681 -0.653002,2.06484 -1.799005,3.13973 -2.723347,2.99818 -0.924343,-0.14155 -1.625335,-1.49759 -2.185213,-1.41705 -0.559877,0.0805 -0.974723,1.5963 -1.118767,0.29305 -0.144045,-1.30326 -0.01645,-5.42649 0.224424,-9.75405 z"
       id="path1196"
       inkscape:path-effect="#path-effect1198"
       inkscape:original-d="m 13.723943,113.0576 c 0.354388,-4.52997 0.708343,-9.05829 1.062251,-13.589855 0.689941,-2.915113 1.379274,-5.829097 2.068342,-8.743411 1.387401,1.321049 2.774691,2.642019 4.161922,3.96296 2.532598,1.154669 5.064888,2.309502 7.597006,3.464592 -2.667148,4.804354 -5.334325,9.608024 -8.00156,14.411024 -0.159134,3.05383 -0.318545,6.1073 -0.478295,9.16157 -1.146298,1.07567 -2.292299,2.15056 -3.439017,3.22561 -0.702525,-1.35826 -1.403523,-2.7143 -2.106526,-4.07499 -0.416116,1.52169 -0.830962,3.03746 -1.247048,4.55648 0.127962,-4.12561 0.25556,-8.24884 0.382925,-12.37398 z"
       sodipodi:nodetypes="ccccccccccc" />
  </g>
  <g
     inkscape:groupmode="layer"
     id="layer6"
     inkscape:label="shirtright"
     style="display:inline">
    <path
       style="fill:#8f82bc;fill-opacity:1;stroke:#8f82bc;stroke-width:0.264583px;stroke-linecap:butt;stroke-linejoin:miter;stroke-opacity:1"
       d="m 73.52308,68.47825 c -2.280266,-0.657383 -6.840634,-1.972101 -9.679443,-2.876082 -2.838808,-0.903981 -3.956075,-1.397204 -4.537477,-1.461985 -0.581401,-0.06478 -0.627003,0.298521 -0.572496,0.833921 0.05451,0.535399 0.209036,1.242944 0.368893,2.032635 0.159856,0.789692 0.325027,1.661439 0.293284,2.403717 -0.03174,0.742277 -0.260244,1.35494 -1.195469,2.249558 -0.935224,0.894618 -2.576922,2.071236 -4.309887,2.936963 -1.732964,0.865727 -3.557075,1.420637 -4.87947,1.456339 -1.322395,0.0357 -2.143246,-0.447656 -2.815837,-1.199644 -0.672591,-0.751989 -1.197024,-1.772706 -1.584661,-2.766061 -0.387636,-0.993355 -0.638449,-1.959354 -0.741085,-3.216841 -0.102636,-1.257487 -0.05703,-2.806459 0.663626,-3.445447 0.72066,-0.638987 2.11651,-0.367665 1.759098,-0.159504 -0.357412,0.208161 -2.467972,0.35308 -5.283132,1.324167 -2.81516,0.971088 -6.334552,2.768088 -8.416704,3.814425 -2.082152,1.046337 -2.72681,1.341899 -3.311244,1.628361 -0.584434,0.286463 -1.108584,0.563773 -1.56682,0.882622 -0.458236,0.318849 -0.850286,0.678874 -1.242616,1.039156 0.05763,1.952759 0.115266,3.905721 0.391802,4.732347 0.276536,0.826626 0.772244,0.527166 0.968926,-0.14137 0.196682,-0.668537 0.09397,-1.706095 -0.153966,-1.556308 -0.247931,0.149787 -0.64093,1.486794 -0.643575,2.366879 -0.0026,0.880086 0.38496,1.303394 0.973582,1.129163 0.588622,-0.174232 1.378422,-0.946238 1.693625,-0.970052 0.315203,-0.02381 0.155594,0.700514 -0.220621,4.347732 -0.376216,3.647218 -0.969052,10.217082 -1.174245,14.679404 -0.205192,4.462325 -0.02278,6.816935 0.07981,11.198365 0.102598,4.38144 0.125398,10.78938 0.07624,14.22822 -0.04916,3.43884 -0.170193,3.90838 7.017313,3.86659 7.187506,-0.0418 21.683165,-0.59461 28.86438,-0.88998 7.181215,-0.29537 7.047627,-0.33321 6.997606,-0.95265 -0.05002,-0.61944 -0.01662,-1.82074 -0.03331,-3.14065 -0.01669,-1.31991 -0.08349,-2.75833 -0.133594,-5.19829 -0.05011,-2.43996 -0.08351,-5.88128 -0.183698,-8.33961 -0.100194,-2.45832 -0.267196,-3.93348 -0.450906,-5.81007 -0.18371,-1.87658 -0.384109,-4.154462 -0.584515,-6.549312 -0.200406,-2.39485 -0.400806,-4.906533 -0.25054,-7.339776 0.150266,-2.433243 0.651269,-4.787985 1.219012,-6.389032 0.567742,-1.601046 1.202344,-2.448318 2.054069,-3.538906 0.851725,-1.090587 1.920528,-2.424412 3.106232,-3.487223 1.185704,-1.062811 2.488305,-1.854445 3.172999,-2.265871 0.684694,-0.411426 0.751524,-0.442617 0.785087,-0.825571 0.03356,-0.382954 0.03356,-1.117754 0.01677,-1.452269 -0.01679,-0.334515 -0.05018,-0.268852 -0.551178,-0.452733 -0.501001,-0.183881 -1.469601,-0.616928 -2.165126,-1.003115 -0.695525,-0.386188 -1.118026,-0.725523 -1.329261,-0.895178 -0.211235,-0.169655 -0.211215,-0.169652 -2.491481,-0.827034 z"
       id="path1113-4"
       inkscape:path-effect="#path-effect1142"
       inkscape:original-d="m 75.803346,69.135632 c -4.56062,-1.31446 -9.12099,-2.629172 -13.681076,-3.944145 -1.11758,-0.492986 -2.23485,-0.986202 -3.35187,-1.479699 -0.0459,0.363582 -0.0915,0.726884 -0.13681,1.089935 0.15428,0.707846 0.30881,1.415391 0.46361,2.122735 0.16491,0.87203 0.33008,1.743778 0.49552,2.615286 -0.22877,0.612934 -0.45727,1.225597 -0.68551,1.838009 -1.64203,1.176924 -3.28373,2.353539 -4.92519,3.529922 -1.82445,0.555191 -3.64856,1.110104 -5.47244,1.664764 -0.82114,-0.483117 -1.64199,-0.966475 -2.46259,-1.450094 -0.52472,-1.020499 -1.04915,-2.041218 -1.57333,-3.062218 -0.25109,-0.96579 -0.5019,-1.93179 -0.75246,-2.898081 0.0453,-1.548772 0.0909,-3.097744 0.13681,-4.647005 1.39565,0.271593 2.7915,0.542913 4.18769,0.813994 -2.11094,0.145184 -4.2215,0.2901 -6.33192,0.434771 -3.51987,1.797358 -7.03926,3.594361 -10.5586,5.391217 -0.64496,0.295838 -1.28962,0.591396 -1.93405,0.886722 -0.52444,0.277581 -1.04859,0.554891 -1.5725,0.831959 -0.3926,0.36055 -1.17699,1.080846 -1.17699,1.080846 0,0 0.115,3.905729 0.17289,5.858276 0.49549,-0.299234 0.9912,-0.598691 1.48722,-0.898438 -0.10299,-1.037369 -0.2057,-2.074928 -0.30816,-3.112799 -0.39329,1.337367 -0.78629,2.674373 -1.17906,4.011237 0.38738,0.423607 0.77499,0.846911 1.1629,1.270015 0.7896,-0.771813 1.5794,-1.543819 2.36949,-2.316106 -0.15988,0.724617 -0.31949,1.448944 -0.47884,2.173039 -0.59312,6.570364 -1.18596,13.140227 -1.77854,19.709946 0.18215,2.35497 0.36456,4.70958 0.54724,7.06398 0.0226,6.40845 0.0453,12.81639 0.0684,19.2242 -0.1213,0.46982 -0.24234,0.93936 -0.36311,1.40866 14.49598,-0.55259 28.99164,-1.1054 43.487846,-1.65849 -0.13387,-0.0376 -0.26747,-0.0754 -0.40081,-0.11354 0.0331,-1.20109 0.0665,-2.40239 0.1002,-3.60396 -0.0671,-1.43823 -0.13386,-2.87665 -0.2004,-4.31537 -0.0337,-3.44121 -0.0671,-6.88253 -0.1002,-10.32418 -0.16728,-1.47497 -0.33428,-2.95013 -0.50102,-4.42559 -0.20067,-2.27772 -0.40107,-4.555597 -0.60121,-6.83378 -0.20067,-2.51152 -0.40107,-5.023202 -0.60121,-7.535195 0.50075,-2.354559 1.00176,-4.7093 1.50303,-7.064332 0.63437,-0.847051 1.26897,-1.694324 1.90385,-2.541877 1.06858,-1.333616 2.13738,-2.667444 3.20647,-4.001552 1.3024,-0.791411 2.605,-1.583045 3.9079,-2.37496 0.0665,-0.03089 0.13334,-0.06206 0.2004,-0.09353 -2.6e-4,-0.734579 -2.6e-4,-1.469379 0,-2.20445 -0.0337,0.06598 -0.0671,0.131636 -0.1002,0.197064 -0.96891,-0.432806 -1.93751,-0.865853 -2.90587,-1.299171 -0.42278,-0.339085 -0.84528,-0.678421 -1.26752,-1.018018 z"
       sodipodi:nodetypes="scccccccccccccccccccccccccccccccccccccccccccccss" />
  </g>
  <g
     inkscape:groupmode="layer"
     id="layer5"
     inkscape:label="Clothes"
     style="display:inline">
    <path
       style="fill:#8fd4bc;fill-opacity:1;stroke:#8fd4bc;stroke-width:0.264583px;stroke-linecap:butt;stroke-linejoin:miter;stroke-opacity:1"
       d="m 134.54969,73.75523 c 1.53016,-0.14798 4.59076,-0.443968 6.61846,-0.468317 2.02771,-0.02435 3.02238,0.223004 4.17018,0.766222 1.1478,0.543218 2.44853,1.382263 3.64222,2.54683 1.1937,1.164567 2.28019,2.65449 3.13717,4.190424 0.85699,1.535935 1.4844,3.117702 2.06591,5.317801 0.58151,2.200099 1.1171,5.018319 1.40019,6.443173 0.28308,1.424854 0.31373,1.456524 -1.87483,2.508507 -2.18855,1.051982 -6.59573,3.124152 -8.85274,4.028385 -2.25701,0.904232 -2.36413,0.640516 -2.50187,-0.0068 -0.13773,-0.647279 -0.30606,-1.678164 -0.42095,-2.202417 -0.11488,-0.524254 -0.17608,-0.541584 -0.0918,0.1806 0.0843,0.722184 0.31382,2.183585 1.18246,6.278855 0.86865,4.09528 2.37632,10.82414 3.13016,14.4046 0.75383,3.58047 0.75383,4.01232 -5.14841,4.1036 -5.90224,0.0913 -17.70599,-0.15774 -23.66186,-0.32005 -5.95588,-0.16231 -6.06385,-0.23788 -6.09981,-2.27228 -0.0359,-2.0344 3e-5,-6.02776 -0.16191,-10.11782 -0.16193,-4.09006 -0.5218,-8.27654 -0.91767,-12.032483 -0.39586,-3.755945 -0.82771,-7.08113 -0.4319,-10.37881 0.3958,-3.29768 1.61936,-6.567753 3.11278,-8.857301 1.49343,-2.289548 3.25679,-3.59835 4.46238,-4.42195 1.20558,-0.8236 1.85335,-1.161906 2.22265,-1.315889 0.36929,-0.153984 0.45993,-0.123435 0.47885,0.340861 0.0189,0.464296 -0.034,1.361982 0.019,2.230113 0.0529,0.868131 0.21167,1.706727 0.43654,2.461531 0.22488,0.754805 0.51588,1.425853 0.87302,2.079246 0.35714,0.653393 0.7804,1.289155 1.17722,1.831455 0.39682,0.542301 0.76718,0.99113 1.11094,1.18117 0.34375,0.19004 0.6612,0.121244 1.59375,-0.297405 0.93254,-0.41865 2.48012,-1.187212 3.81612,-2.042173 1.336,-0.854961 2.46031,-1.796343 3.20023,-2.649944 0.73991,-0.853601 1.09526,-1.619454 1.1618,-2.165222 0.0665,-0.545768 -0.15591,-0.871161 -0.26716,-1.033882 -0.11124,-0.162722 -0.11122,-0.162687 1.41894,-0.310667 z"
       id="path1107"
       inkscape:path-effect="#path-effect1109"
       inkscape:original-d="m 133.01953,73.90321 c 3.06034,-0.295736 6.12094,-0.591714 9.1818,-0.887963 0.99445,0.247627 1.98913,0.494971 2.98409,0.742075 1.30051,0.839336 2.60124,1.67838 3.90226,2.517183 1.08627,1.490243 2.17276,2.980165 3.25954,4.469865 0.62717,1.58208 1.25458,3.163847 1.88227,4.745384 0.53535,2.818592 1.07094,5.636813 1.60681,8.454843 0.0303,0.03191 0.061,0.06353 0.0918,0.09486 -4.40761,2.072503 -8.81479,4.144672 -13.22179,6.216626 -0.10739,-0.263466 -0.21451,-0.527182 -0.32136,-0.791149 -0.1686,-1.030673 -0.33693,-2.061557 -0.505,-3.092722 -0.0615,-0.01705 -0.12269,-0.03439 -0.18364,-0.05201 0.22929,1.461703 0.45883,2.923105 0.68864,4.384275 1.50747,6.7294 3.01515,13.45826 4.52312,20.18701 -2.7e-4,0.43211 -2.7e-4,0.86396 0,1.29555 -11.80449,-0.24877 -23.60824,-0.49778 -35.41196,-0.74706 -0.10823,-0.0753 -0.21619,-0.15089 -0.32389,-0.22671 0.0357,-3.99327 0.0717,-7.98663 0.10796,-11.98033 -0.36014,-4.18639 -0.72002,-8.37287 -1.07963,-12.559689 -0.43213,-3.325057 -0.86397,-6.650243 -1.29556,-9.975752 1.22335,-3.269942 2.4469,-6.540018 3.67075,-9.810414 1.76318,-1.308602 3.52654,-2.617406 5.2902,-3.926491 0.64753,-0.338063 1.2953,-0.676368 1.94334,-1.014933 0.0904,0.03081 0.18101,0.06143 0.27191,0.09165 -0.0532,0.89798 -0.10608,1.795668 -0.15873,2.693116 0.15847,0.838885 0.3172,1.67748 0.47619,2.515843 0.29074,0.671329 0.58174,1.342377 0.87301,2.013174 0.42302,0.636053 0.84629,1.271814 1.26984,1.907344 0.37011,0.449102 0.74047,0.897932 1.1111,1.346511 0.3172,-0.06854 0.63465,-0.137341 0.95238,-0.206394 1.54737,-0.768335 3.09495,-1.536894 4.64283,-2.305733 1.12409,-0.941167 2.2484,-1.882547 3.37299,-2.824197 0.3551,-0.765628 0.71046,-1.531478 1.06608,-2.297609 -0.22273,-0.325145 -0.44518,-0.65054 -0.66737,-0.976188 z" />
    <path
       style="fill:#de8787;fill-opacity:1;stroke:#de8787;stroke-width:0.264583px;stroke-linecap:butt;stroke-linejoin:miter;stroke-opacity:1"
       d="m 113.37803,66.564283 c -2.28027,-0.657383 -6.84063,-1.972098 -9.67944,-2.87608 -2.83881,-0.903981 -3.956075,-1.397202 -4.537477,-1.461985 -0.581403,-0.06478 -0.627006,0.298518 -0.615576,0.891727 0.01143,0.593208 0.07983,1.416335 0.239707,2.205972 0.159873,0.789636 0.411172,1.545813 0.422489,2.230333 0.01132,0.684519 -0.217185,1.297182 -1.152409,2.191799 -0.935223,0.894618 -2.576919,2.071235 -4.309883,2.936962 -1.732965,0.865728 -3.557075,1.420638 -4.87947,1.45634 -1.322396,0.0357 -2.143246,-0.447655 -2.815837,-1.199643 -0.672591,-0.751989 -1.197023,-1.772707 -1.58466,-2.766061 -0.387637,-0.993355 -0.63845,-1.959354 -0.741086,-3.216842 -0.102636,-1.257487 -0.05703,-2.806459 -0.07066,-3.939778 -0.01363,-1.133319 -0.08651,-1.850902 -0.679538,-1.92767 -0.593025,-0.07677 -1.705815,0.487326 -3.867234,0.902086 -2.161419,0.414761 -5.371309,0.680301 -8.228269,0.969662 -2.856959,0.289361 -5.360659,0.602497 -7.211738,0.782184 -1.851078,0.179686 -3.049328,0.225928 -3.787202,0.284401 -0.737875,0.05847 -1.015283,0.129109 -1.190902,0.416012 -0.175619,0.286904 -0.249715,0.789832 -0.03609,1.760956 0.213629,0.971124 0.714855,2.410432 1.435138,3.482732 0.720282,1.0723 1.659608,1.777607 2.885102,2.656628 1.225494,0.879022 2.736993,1.931638 3.847158,2.662652 1.110165,0.731015 1.818857,1.140326 2.28721,1.394389 0.468354,0.254063 0.696365,0.352858 0.730596,0.764615 0.03423,0.411757 -0.125379,1.136084 -0.501594,4.783302 -0.376216,3.647218 -0.969052,10.217083 -1.174245,14.679402 -0.205193,4.462322 -0.02278,6.816942 0.285983,9.732682 0.308765,2.91574 0.743848,6.39238 0.783035,8.95073 0.03919,2.55834 -0.317436,4.19799 5.485885,4.99364 5.803321,0.79565 17.766318,0.74751 24.875841,0.73207 7.109522,-0.0155 9.365222,0.002 10.493312,0.0105 1.12808,0.009 1.12808,0.009 1.09468,-0.71049 -0.0334,-0.71912 -0.10019,-2.15755 -0.15029,-4.59751 -0.0501,-2.43995 -0.0835,-5.88128 -0.1837,-8.33961 -0.10019,-2.45832 -0.2672,-3.93348 -0.45091,-5.81006 -0.18371,-1.876585 -0.38411,-4.154467 -0.58451,-6.549317 -0.20041,-2.39485 -0.40081,-4.906532 -0.25055,-7.339776 0.15027,-2.433244 0.65127,-4.787984 1.21902,-6.389028 0.56774,-1.601045 1.20234,-2.448322 2.05407,-3.538909 0.85172,-1.090588 1.92053,-2.424413 3.10623,-3.487224 1.18571,-1.062811 2.48831,-1.854445 3.173,-2.26587 0.68469,-0.411426 0.75152,-0.442618 0.78509,-0.825572 0.0336,-0.382954 0.0336,-1.117754 0.0168,-1.452269 -0.0168,-0.334515 -0.0502,-0.268851 -0.55118,-0.452733 -0.501,-0.183881 -1.4696,-0.616928 -2.16512,-1.003115 -0.69553,-0.386188 -1.11803,-0.725522 -1.32926,-0.895178 -0.21124,-0.169655 -0.21122,-0.169632 -2.49149,-0.827016 z"
       id="path1113"
       inkscape:path-effect="#path-effect1115"
       inkscape:original-d="m 115.6583,67.221667 c -4.56063,-1.31446 -9.12099,-2.629172 -13.68108,-3.944145 -1.11758,-0.492986 -2.234846,-0.986201 -3.351869,-1.479699 -0.04587,0.363583 -0.09147,0.726885 -0.136811,1.089935 0.06814,0.823419 0.136546,1.646546 0.205216,2.469432 0.251045,0.756468 0.502346,1.512644 0.753917,2.268589 -0.228775,0.612934 -0.457274,1.225597 -0.685512,1.838009 -1.642028,1.176924 -3.283725,2.353539 -4.925185,3.529922 -1.82445,0.555192 -3.64856,1.110104 -5.47244,1.664764 -0.82114,-0.483117 -1.64199,-0.966474 -2.46259,-1.450093 -0.52472,-1.020499 -1.04915,-2.041218 -1.57333,-3.062219 -0.25109,-0.965789 -0.5019,-1.931789 -0.75246,-2.898081 0.0453,-1.548772 0.0909,-3.097744 0.13681,-4.647005 -0.0731,-0.717344 -0.14604,-1.434922 -0.21866,-2.15276 -1.11309,0.564374 -2.22588,1.128467 -3.33842,1.692309 -3.21033,0.265813 -6.42022,0.531351 -9.63002,0.796651 -2.50411,0.313414 -5.00781,0.626552 -7.511396,0.939444 -1.19859,0.0465 -2.39684,0.09274 -3.59489,0.13873 -0.27767,0.07086 -0.55507,0.141531 -0.83221,0.211905 -0.0744,0.503213 -0.14846,1.006147 -0.2223,1.508859 0.501,1.439679 1.00223,2.878986 1.50376,4.318152 0.93913,0.705616 1.87846,1.410917 2.81811,2.11602 1.51135,1.052945 3.022846,2.105565 4.534726,3.158008 0.70848,0.409596 1.41717,0.81891 2.12616,1.227983 0.22775,0.09908 0.45577,0.197854 0.68405,0.296393 -0.15988,0.724618 -0.31949,1.448944 -0.47884,2.173039 -0.59312,6.570364 -1.18596,13.140228 -1.77854,19.70995 0.18215,2.354961 0.36456,4.709581 0.54724,7.063981 0.434845,3.4771 0.869928,6.95374 1.305303,10.43035 -0.35691,1.64 -0.713531,3.27965 -1.069912,4.91914 11.963222,-0.0479 23.926219,-0.096 35.889723,-0.14444 2.25554,0.0175 4.51124,0.0348 6.76741,0.0518 -2.6e-4,2.5e-4 -2.6e-4,2.5e-4 0,0 -0.0671,-1.43823 -0.13386,-2.87666 -0.2004,-4.31537 -0.0337,-3.44121 -0.0671,-6.88254 -0.1002,-10.32419 -0.16728,-1.47497 -0.33428,-2.95013 -0.50102,-4.42559 -0.20067,-2.27771 -0.40107,-4.555592 -0.60121,-6.833774 -0.20067,-2.511521 -0.40107,-5.023203 -0.60122,-7.535196 0.50076,-2.354559 1.00176,-4.7093 1.50304,-7.064331 0.63436,-0.847051 1.26897,-1.694324 1.90385,-2.541878 1.06858,-1.333616 2.13738,-2.667443 3.20647,-4.001552 1.3024,-0.791411 2.605,-1.583045 3.9079,-2.37496 0.0665,-0.03088 0.13334,-0.06206 0.2004,-0.09353 -2.6e-4,-0.734579 -2.6e-4,-1.469379 0,-2.20445 -0.0337,0.06598 -0.0671,0.131637 -0.1002,0.197064 -0.96891,-0.432806 -1.93751,-0.865853 -2.90587,-1.299171 -0.42278,-0.339085 -0.84528,-0.67842 -1.26752,-1.018018 z"
       sodipodi:nodetypes="scccccccccccccccccccccccccccccccccccccccccccccss" />
    <path
       style="display:inline;fill:#8f82bc;fill-opacity:1;stroke:#8f82bc;stroke-width:0.264583px;stroke-linecap:butt;stroke-linejoin:miter;stroke-opacity:1"
       d="m 29.633812,98.073273 c -0.133252,-0.96422 -0.205242,-2.620154 -0.414559,-2.836031 -0.209316,-0.215878 -0.555853,1.008183 -1.011917,2.429941 -0.456064,1.421758 -1.021205,3.039977 -2.172113,3.183077 -1.150908,0.14309 -2.885869,-1.189394 -4.966378,-2.45766 -2.080509,-1.268266 -4.505018,-2.47115 -5.465836,-3.592343 -0.960818,-1.121194 -0.457882,-2.160715 0.261498,-3.346105 0.719379,-1.18539 1.654045,-2.514796 2.602823,-4.310878 0.948779,-1.796082 1.910921,-4.057863 2.933393,-6.569968 1.022471,-2.512106 2.105202,-5.274393 4.196806,-6.275176 2.091603,-1.000784 5.191933,-0.239727 7.149123,0.303254 1.957189,0.542982 2.770905,0.867823 2.770905,0.867823 0,0 -0.813742,-0.324851 -0.835653,1.405486 -0.02191,1.730336 0.74778,5.515453 0.387109,8.69002 -0.360671,3.174566 -1.851452,5.738256 -2.85863,7.972891 -1.007178,2.234635 -1.53079,4.140082 -1.889805,4.956337 -0.359014,0.816255 -0.553513,0.543552 -0.686766,-0.420668 z"
       id="path1167"
       inkscape:path-effect="#path-effect1169"
       inkscape:original-d="m 29.57254,98.764754 c -0.0723,-1.655687 -0.14426,-3.311622 -0.21597,-4.96779 -0.34683,1.224344 -0.69336,2.448407 -1.03963,3.672249 -0.56535,1.619839 -1.130491,3.238057 -1.69644,4.857567 -1.736214,-1.33339 -3.471175,-2.665877 -5.207556,-3.999514 -2.424661,-1.202826 -4.84917,-2.405709 -7.273671,-3.608721 0.503236,-1.039328 1.006172,-2.078849 1.509114,-3.119191 0.935801,-1.33038 1.870466,-2.659786 2.805673,-3.990602 0.96189,-2.261627 1.92404,-4.523405 2.88648,-6.785464 1.08249,-2.762152 2.16523,-5.524436 3.24825,-8.287001 3.10027,0.761353 6.2006,1.522408 9.30144,2.28328 0.81349,0.325103 1.62721,0.649933 2.44125,0.974563 -0.81404,-0.32463 -1.62779,-0.649461 -2.44125,-0.974563 0.76945,3.785526 1.53915,7.570641 2.30913,11.355615 -1.49112,2.564038 -2.9819,5.127728 -4.47244,7.691235 -0.52391,1.905768 -1.04752,3.811216 -1.57087,5.716463 -0.19478,-0.272474 -0.38929,-0.54517 -0.58351,-0.818126 z"
       sodipodi:nodetypes="ccccccccccccccccc" />
  </g>
  <g
     inkscape:groupmode="layer"
     id="layer7"
     inkscape:label="body"
     style="display:inline">
    <path
       style="fill:#c6745c;fill-opacity:1;stroke:#c6745c;stroke-width:0.264583px;stroke-linecap:butt;stroke-linejoin:miter;stroke-opacity:1"
       d="m 153.27179,93.288721 c 2.3204,-0.185371 2.49551,1.133791 2.6925,4.905325 0.19699,3.771534 0.41588,9.995144 0.41587,15.292324 -2e-5,5.29717 -0.2189,9.66759 -0.91948,11.83303 -0.70058,2.16543 -1.88256,2.12608 -3.13022,1.99697 -1.24766,-0.12911 -2.56097,-0.34794 -3.45829,-0.88121 -0.89732,-0.53328 -1.37887,-1.38108 -1.75099,-2.77241 -0.37212,-1.39134 -0.63478,-3.32628 -1.16012,-6.18938 -0.52534,-2.86309 -1.31333,-6.65415 -2.01378,-9.89518 -0.70045,-3.24102 -1.31333,-5.93181 -1.61979,-7.627432 -0.30647,-1.695622 -0.30647,-2.396052 1.92609,-3.591371 2.23256,-1.195319 6.69781,-2.885295 9.01821,-3.070666 z"
       id="path1148"
       inkscape:path-effect="#path-effect1150"
       inkscape:original-d="m 155.41705,91.78396 c 0.17484,1.31943 0.34996,2.63859 0.52533,3.957499 0.21863,6.224131 0.43752,12.447741 0.65667,18.671231 -0.21916,4.37084 -0.43804,8.74126 -0.65667,13.1115 -1.18229,-0.0391 -2.36427,-0.0785 -3.546,-0.11805 -1.31363,-0.21859 -2.62694,-0.43742 -3.94001,-0.65651 -0.48183,-0.84757 -0.96338,-1.69537 -1.44467,-2.54343 -0.26294,-1.93475 -0.5256,-3.86969 -0.788,-5.80491 -0.78828,-3.79095 -1.57627,-7.58201 -2.36401,-11.37339 -0.61316,-2.69066 -1.22604,-5.38145 -1.83867,-8.072566 -2.6e-4,-0.700198 -2.6e-4,-1.400628 0,-2.10134 4.46517,-1.689787 8.93042,-3.379762 13.39603,-5.070034 z" />
    <path
       style="fill:#cd9686;fill-opacity:1;stroke:#cd9686;stroke-width:0.263252px;stroke-linecap:butt;stroke-linejoin:miter;stroke-opacity:1"
       d="m 41.937022,66.321625 c -2.319767,0.976139 -6.958978,2.92828 -9.293253,3.92436 -2.334274,0.996081 -2.363645,1.035859 -2.643158,0.902601 -0.279514,-0.133259 -0.809127,-0.439364 -1.370798,-0.474328 -0.56167,-0.03496 -1.15513,0.201018 -1.418208,0.3495 -0.263077,0.148481 -0.196086,0.209578 -0.182161,0.379043 0.01392,0.169465 -0.02523,0.446997 -0.05964,0.949229 -0.03441,0.502232 -0.06411,1.229173 -0.07762,1.901244 -0.01351,0.672072 -0.01084,1.289264 -0.119712,1.912162 -0.108868,0.622898 -0.32916,1.251435 -0.514786,1.882568 -0.185626,0.631133 -0.336618,1.264856 -0.385416,1.779998 -0.0488,0.515142 0.0045,0.911757 -0.07057,1.21467 -0.07507,0.302914 -0.278217,0.51206 -0.578417,0.545495 -0.300201,0.03344 -0.69751,-0.108512 -0.929817,-0.714741 -0.232307,-0.606229 -0.299767,-1.676999 -0.249689,-2.807709 0.05008,-1.130711 0.21774,-2.321349 0.01123,-3.052151 -0.206513,-0.730802 -0.7871,-1.001376 -1.242568,-1.008663 -0.455467,-0.0073 -0.785617,0.248423 -1.002272,0.961397 -0.216655,0.712973 -0.320063,1.883111 -0.427107,3.312424 -0.107044,1.429314 -0.217726,3.117748 -0.270542,4.41089 -0.05281,1.293143 -0.04778,2.190959 -0.146974,2.744449 -0.09919,0.55349 -0.302342,0.762627 -0.631143,0.814961 -0.3288,0.05233 -0.783258,-0.05183 -1.128681,-0.610478 -0.345424,-0.558652 -0.582035,-1.571966 -0.9621,-2.476932 -0.380065,-0.904966 -0.903547,-1.701402 -1.357401,-2.331389 -0.453853,-0.629987 -0.838041,-1.09347 -0.996904,-1.91857 -0.158864,-0.8251 -0.09238,-2.012007 -0.09595,-2.944827 -0.0036,-0.93282 -0.07723,-1.611409 0.01421,-2.200475 0.09144,-0.589066 0.348163,-1.088672 1.171328,-2.183899 0.823164,-1.095227 2.212783,-2.785975 3.20541,-3.945618 0.992628,-1.159644 1.588225,-1.788098 2.637248,-2.116293 1.049022,-0.328195 2.551393,-0.355857 4.768117,-0.344034 2.216724,0.01182 5.147655,0.06314 7.545664,0.06052 2.398009,-0.0026 4.262989,-0.05921 5.694423,-0.05014 1.431433,0.0091 2.429221,0.08383 2.928247,0.121214 0.499026,0.03739 0.498786,0.03738 -1.820982,1.013521 z"
       id="path1187"
       inkscape:path-effect="#path-effect1189"
       inkscape:original-d="m 44.25679,65.345487 c -4.63949,1.952384 -9.2787,3.904527 -13.91765,5.856429 -0.0297,0.04011 -0.059,0.07994 -0.0883,0.11959 -0.52992,-0.305872 -1.05953,-0.611983 -1.58888,-0.918336 -0.59377,0.236242 -1.18723,0.472225 -1.78043,0.707966 0.0668,0.06132 0.13374,0.122473 0.20103,0.183343 -0.0394,0.277758 -0.0786,0.555283 -0.11746,0.832559 -0.03,0.727212 -0.0597,1.454153 -0.0891,2.180864 0.002,0.617447 0.005,1.234637 0.008,1.851587 -0.22057,0.628786 -0.44086,1.257323 -0.66088,1.885618 -0.15126,0.633984 -0.30225,1.267707 -0.45298,1.901189 0.0531,0.396878 0.10634,0.793501 0.15989,1.189883 -0.20341,0.209399 -0.40657,0.418535 -0.60945,0.627441 -0.39761,-0.141717 -0.79492,-0.283664 -1.19198,-0.425863 -0.0677,-1.070544 -0.1352,-2.141311 -0.20238,-3.212338 0.16739,-1.190447 0.33505,-2.381085 0.503,-3.572014 -0.58088,-0.270328 -1.16146,-0.540917 -1.7418,-0.811737 -0.33044,0.255969 -0.66059,0.511678 -0.99048,0.767155 -0.10369,1.170428 -0.20709,2.340566 -0.31023,3.510472 -0.11096,1.688726 -0.22161,3.377162 -0.33205,5.065365 0.005,0.898097 0.01,1.795913 0.0151,2.693483 -0.20344,0.209387 -0.40659,0.418524 -0.60947,0.62743 -0.45476,-0.10394 -0.90922,-0.208089 -1.36342,-0.31249 -0.23689,-1.013117 -0.47349,-2.026434 -0.70985,-3.040013 -0.52377,-0.796227 -1.04725,-1.592664 -1.57047,-2.389343 -0.38448,-0.46325 -0.76866,-0.92674 -1.15258,-1.390471 0.0662,-1.186716 0.13269,-2.373623 0.19946,-3.56084 -0.0739,-0.67838 -0.14761,-1.356964 -0.22099,-2.035827 0.25645,-0.499362 0.51318,-0.998965 0.77017,-1.49882 1.38941,-1.690574 2.77903,-3.381321 4.16895,-5.072359 0.59535,-0.62824 1.19096,-1.256681 1.78683,-1.885403 1.50219,-0.02739 3.00456,-0.05508 4.50726,-0.08299 2.93074,0.05157 5.86167,0.102944 8.79292,0.15396 1.86478,-0.05634 3.72976,-0.11293 5.59505,-0.169752 0.99755,0.07501 1.99534,0.149728 2.99341,0.224266 z"
       sodipodi:nodetypes="ccccccccccccccccccccccccccccccccccsc" />
  </g>
  <g
     inkscape:groupmode="layer"
     id="layer4"
     inkscape:label="Necks"
     style="display:inline">
    <path
       style="fill:#c6745c;fill-opacity:1;stroke:#c6745c;stroke-width:0.264583px;stroke-linecap:butt;stroke-linejoin:miter;stroke-opacity:1"
       d="m 133.6869,74.879401 c -0.01,0.181603 -0.0287,0.544545 -0.26801,1.024561 -0.23931,0.480017 -0.69856,1.077059 -1.34921,1.763413 -0.65065,0.686353 -1.4926,1.462007 -2.71733,2.186615 -1.22473,0.724607 -2.8321,1.398239 -3.80803,1.853752 -0.97592,0.455513 -1.32035,0.692806 -1.59768,0.712163 -0.27733,0.01936 -0.48782,-0.179009 -0.94706,-0.768353 -0.45925,-0.589344 -1.16726,-1.569684 -1.68392,-2.572333 -0.51666,-1.00265 -0.84195,-2.02765 -1.02377,-3.133976 -0.18181,-1.106326 -0.22008,-2.294 -0.21052,-3.393984 0.01,-1.099984 0.067,-2.112246 0.11475,-2.675142 0.0478,-0.562896 0.0861,-0.67644 1.12889,-1.235014 1.04281,-0.558574 3.0903,-1.561993 4.87953,-2.794057 1.78924,-1.232064 3.32007,-2.692797 4.33429,-3.73063 1.01422,-1.037832 1.51174,-1.652737 1.99979,-1.808873 0.48804,-0.156135 0.96642,0.14682 0.93983,0.449216 -0.0266,0.302396 -0.5579,0.603977 -0.9494,1.024584 -0.3915,0.420606 -0.64331,0.960052 -0.80247,1.766772 -0.15916,0.80672 -0.22578,1.880672 -0.28389,2.870806 -0.0581,0.990135 -0.10772,1.896354 -0.0368,2.716196 0.0709,0.819842 0.26226,1.553361 0.55887,2.290358 0.29661,0.736996 0.69845,1.477513 1.00462,2.023503 0.30618,0.545991 0.51667,0.897437 0.62189,1.073128 0.10523,0.175691 0.10522,0.175691 0.0957,0.357295 z"
       id="path930"
       inkscape:path-effect="#path-effect932"
       inkscape:original-d="m 133.69647,74.697797 c -0.0194,0.363194 -0.0385,0.726137 -0.0574,1.088828 -0.45953,0.597322 -0.91878,1.194363 -1.37778,1.791172 -0.84225,0.77594 -1.68421,1.55159 -2.52592,2.327008 -1.6077,0.673917 -3.21507,1.347555 -4.82222,2.020941 -0.34471,0.237564 -0.68915,0.474847 -1.03333,0.711899 -0.21076,-0.198117 -0.42125,-0.396485 -0.63148,-0.595103 -0.7083,-0.980121 -1.41631,-1.960462 -2.12407,-2.941074 -0.32558,-1.024799 -0.65088,-2.049799 -0.97592,-3.07508 -0.0385,-1.187463 -0.0768,-2.375137 -0.11482,-3.563083 0.0571,-1.012047 0.11455,-2.024306 0.17222,-3.036846 0.038,-0.113295 0.0763,-0.226831 0.11482,-0.340628 2.0473,-1.003202 4.09479,-2.006618 6.14258,-3.010313 1.53063,-1.460533 3.06146,-2.921269 4.59259,-4.382286 0.49728,-0.614675 0.9948,-1.229581 1.49259,-1.844749 0.47814,0.303228 0.95652,0.606184 1.43518,0.90889 -0.53161,0.301861 -1.06291,0.603443 -1.59399,0.904793 -0.25209,0.539727 -0.5039,1.079174 -0.75546,1.618389 -0.0669,1.074264 -0.13351,2.148216 -0.19986,3.221977 -0.0499,0.906509 -0.0995,1.812728 -0.14883,2.718705 0.1911,0.733802 0.38245,1.467322 0.57407,2.200592 0.4016,0.74081 0.80344,1.481328 1.20556,2.221615 0.21023,0.351709 0.42072,0.703156 0.63148,1.054353 z"
       sodipodi:nodetypes="scccccccccccccccccccccss" />
    <path
       style="display:inline;fill:#af573d;fill-opacity:1;stroke:#af573d;stroke-width:0.264583px;stroke-linecap:butt;stroke-linejoin:miter;stroke-opacity:1;filter:url(#filter965)"
       d="m 32.199919,59.994427 c 0.482797,0.400825 1.434125,2.566259 1.967732,3.502479 0.533607,0.936219 0.95459,1.338065 1.423421,1.78776 0.468831,0.449696 0.985487,0.947216 1.617,1.368149 0.631512,0.420933 1.37779,0.765369 2.325016,1.052365 0.947226,0.286996 2.095352,0.516622 2.9373,0.612262 0.841948,0.09564 1.37774,0.05737 1.626359,0.124455 0.24862,0.06709 0.210348,0.239304 0.200841,0.363736 -0.0095,0.124432 0.0096,0.200984 -0.554781,0.191273 -0.564413,-0.0097 -1.712539,-0.105386 -2.898954,-0.478467 -1.186416,-0.373082 -2.41108,-1.023685 -3.444436,-1.712543 -1.033356,-0.688857 -1.875316,-1.416004 -2.497286,-2.13357 -0.621969,-0.717566 -1.023808,-1.425567 -1.348229,-2.097271 -0.324421,-0.671704 -0.833862,-1.98254 -1.212172,-2.955965 0,0 0,0 0,0 0,0 -1.874651,-0.0765 -1.874651,-0.0765 0.624883,0.0255 1.250044,0.05101 1.73284,0.451837 z"
       id="path936"
       inkscape:path-effect="#path-effect938"
       inkscape:original-d="m 32.341729,59.61909 c 1.590501,0.22722 1.292442,2.94154 1.938264,4.41192 0.421261,0.40212 0.84224,0.80397 1.262962,1.20555 0.51694,0.49781 1.033597,0.99533 1.549998,1.49259 0.746575,0.34472 1.492856,0.68915 2.238885,1.03333 1.148435,0.2299 2.29656,0.45953 3.444441,0.68889 0.536078,-0.038 1.071867,-0.0763 1.607405,-0.11481 -0.03801,0.17249 -0.07628,0.34471 -0.114816,0.51666 0.01939,0.0768 0.03854,0.15335 0.05741,0.22963 -1.147905,-0.0954 -2.29603,-0.19109 -3.444441,-0.28703 -1.224449,-0.65037 -2.449115,-1.30097 -3.674067,-1.95185 -0.841727,-0.72691 -1.683684,-1.45406 -2.525924,-2.18148 -0.401596,-0.70778 -0.803437,-1.41578 -1.205553,-2.12407 -0.305914,-0.6121 -0.756111,-1.94596 -1.134563,-2.91933 0,0 2.65e-4,2.7e-4 0,0 l -1.874651,-0.0765 c 0,0 1.250032,0.0513 1.87465,0.0765 z"
       sodipodi:nodetypes="sccccccccccccccss"
       transform="matrix(-1,-0.0332916,0,1,164.58943,2.7397229)" />
    <path
       style="display:inline;fill:#cd9686;fill-opacity:1;stroke:#cd9686;stroke-width:0.284965px;stroke-linecap:butt;stroke-linejoin:miter;stroke-opacity:1"
       d="m 99.447671,67.625773 c -0.01111,0.181554 -0.03331,0.544396 -0.310906,1.02314 -0.277598,0.478745 -0.810324,1.073342 -1.565076,1.756226 -0.754751,0.682883 -1.731412,1.454043 -3.152096,2.172128 -1.420683,0.718085 -3.285234,1.383157 -4.217351,1.715637 -0.932116,0.332479 -0.932116,0.332479 -1.254148,0.350476 -0.322033,0.018 -0.965731,0.05397 -1.698102,-0.420122 -0.732371,-0.474095 -1.553669,-1.45821 -2.152981,-2.463602 -0.599312,-1.005393 -0.976657,-2.032131 -1.187552,-3.139411 -0.210895,-1.107281 -0.255294,-2.295159 -0.244209,-3.395087 0.01109,-1.099929 0.07768,-2.111885 0.05847,-2.893362 -0.01921,-0.781476 -0.124332,-1.332578 -0.229412,-1.88348 2.375133,-0.992531 4.749873,-1.984898 6.900116,-2.988687 2.150242,-1.003789 4.075485,-2.018821 5.350735,-3.459624 1.27525,-1.440803 1.90021,-3.307368 2.381097,-4.469711 0.480888,-1.162343 0.817755,-1.620289 0.838216,-0.769701 0.02046,0.850589 -0.275684,3.009629 -0.43125,4.575384 -0.155566,1.565755 -0.170569,2.538075 -0.182013,3.491344 -0.01144,0.953269 -0.01933,1.887383 -0.01213,2.788326 0.0072,0.900944 0.02947,1.768576 0.04805,2.526387 0.01858,0.757812 0.03347,1.405665 0.08941,2.09479 0.05594,0.689126 0.152911,1.4195 0.323481,1.960893 0.170569,0.541394 0.414738,0.893961 0.536814,1.070233 0.122077,0.176273 0.121952,0.176269 0.110844,0.357823 z"
       id="path930-6"
       inkscape:path-effect="#path-effect990"
       inkscape:original-d="m 99.458779,67.444219 c -0.02249,0.363091 -0.04471,0.725932 -0.0666,1.088523 -0.533058,0.594874 -1.065788,1.189468 -1.598216,1.783833 -0.977021,0.771453 -1.953677,1.542619 -2.930077,2.313553 -1.86493,0.665353 -3.72948,1.330429 -5.59376,1.995255 -3e-4,2.5e-4 -3e-4,2.5e-4 0,0 -0.64405,0.03626 -1.28775,0.07221 -1.93118,0.107928 -0.82163,-0.983894 -1.64293,-1.968006 -2.46393,-2.952389 -0.37766,-1.026533 -0.75502,-2.053265 -1.13206,-3.080278 -0.0447,-1.187668 -0.0891,-2.375546 -0.1332,-3.563694 0.0662,-1.011746 0.13289,-2.023696 0.19979,-3.035929 -0.10533,-0.550646 -0.31524,-1.652705 -0.31524,-1.652705 0,0 4.74992,-1.984787 7.1254,-2.977594 1.925,-1.014803 3.85024,-2.029839 5.7758,-3.045134 0.624702,-1.866453 1.249664,-3.733017 1.874973,-5.599969 0.336585,-0.457725 0.673454,-0.91567 1.010657,-1.373914 -0.296473,2.15944 -0.592616,4.318481 -0.888474,6.477401 -0.01531,0.972621 -0.03028,1.944942 -0.04501,2.917042 -0.0081,0.93444 -0.01612,1.868553 -0.02366,2.802492 0.02192,0.86796 0.0442,1.735592 0.06682,2.603055 0.01462,0.648157 0.02946,1.296011 0.04466,1.943647 0.09663,0.730657 0.193638,1.461026 0.290916,2.191165 0.243869,0.352829 0.488036,0.705397 0.732516,1.057716 z"
       sodipodi:nodetypes="scccccccccccccccccccccss" />
    <path
       style="display:inline;fill:#bf7863;fill-opacity:1;stroke:#bf7863;stroke-width:0.264583px;stroke-linecap:butt;stroke-linejoin:miter;stroke-opacity:1;filter:url(#filter965-1)"
       d="m 101.55781,112.58972 c 0.1705,0.38808 1.12183,2.55352 1.65544,3.48974 0.5336,0.93622 0.95459,1.33806 1.42342,1.78776 0.46883,0.44969 0.98549,0.94721 1.617,1.36815 0.63151,0.42093 1.37778,0.76536 2.32501,1.05236 0.94723,0.287 2.09535,0.51662 2.9373,0.61226 0.84195,0.0956 1.37774,0.0574 1.62636,0.12446 0.24862,0.0671 0.21035,0.23931 0.20084,0.36374 -0.01,0.12443 0.01,0.20097 -0.55479,0.19126 -0.56442,-0.01 -1.71254,-0.10538 -2.9427,-0.43495 -1.23016,-0.32957 -2.54232,-0.89312 -3.57573,-1.58199 -1.03342,-0.68887 -1.7878,-1.50299 -2.36601,-2.26409 -0.5782,-0.76111 -0.98004,-1.46911 -1.30446,-2.14082 -0.32442,-0.6717 -0.83387,-1.98253 -1.02302,-2.46925 -0.18916,-0.48671 -0.18916,-0.48671 -0.18916,-0.48671 0,0 0.52686,0.1693 0.52686,0.1693 -0.17562,-0.0564 -0.35103,-0.1128 -0.43895,-0.14105 -0.0879,-0.0282 -0.0879,-0.0282 0.0826,0.35983 z"
       id="path936-0"
       inkscape:path-effect="#path-effect1020"
       inkscape:original-d="m 101.38732,112.20164 c 1.5905,0.22722 1.29245,2.94154 1.93827,4.41192 0.42126,0.40212 0.84224,0.80397 1.26296,1.20555 0.51694,0.49781 1.0336,0.99533 1.55,1.49259 0.74657,0.34472 1.49285,0.68915 2.23888,1.03333 1.14844,0.2299 2.29656,0.45953 3.44444,0.68889 0.53608,-0.038 1.07187,-0.0763 1.60741,-0.11481 -0.038,0.17249 -0.0763,0.34471 -0.11482,0.51666 0.0194,0.0768 0.0385,0.15335 0.0574,0.22963 -1.14791,-0.0954 -2.29603,-0.19109 -3.44444,-0.28703 -1.31192,-0.56336 -2.62408,-1.12692 -3.93658,-1.69071 -0.75426,-0.81406 -1.50865,-1.62817 -2.26341,-2.44262 -0.4016,-0.70778 -0.80344,-1.41578 -1.20555,-2.12407 -0.30592,-0.6121 -0.75611,-1.94596 -1.13457,-2.91933 v 0 l 0.52686,0.1693 c 0,0 -0.35108,-0.11266 -0.52686,-0.1693 z"
       sodipodi:nodetypes="sccccccccccccccsss"
       transform="matrix(-1.1324451,-0.25558652,-0.2474518,1.3889708,241.742,-79.102376)" />
    <path
       style="display:inline;fill:#f5b694;fill-opacity:1;stroke:#f5b694;stroke-width:0.284965px;stroke-linecap:butt;stroke-linejoin:miter;stroke-opacity:1"
       d="m 59.868832,70.05436 c -0.01111,0.181554 -0.03331,0.544395 -0.310907,1.02314 -0.277598,0.478745 -0.810325,1.073342 -1.565078,1.756225 -0.754752,0.682883 -1.731416,1.454044 -3.1521,2.172129 -1.420683,0.718085 -3.285235,1.383157 -4.217351,1.715636 -0.932116,0.332479 -0.932116,0.332479 -1.254148,0.350476 -0.322033,0.018 -0.965731,0.05397 -1.698102,-0.420122 -0.732371,-0.474094 -1.553668,-1.458209 -2.152981,-2.463601 -0.599312,-1.005393 -0.976657,-2.032132 -1.187552,-3.139412 -0.210895,-1.10728 -0.255294,-2.295158 -0.244209,-3.395086 0.01109,-1.099929 0.07768,-2.111885 0.05847,-2.893362 -0.01921,-0.781477 -0.124332,-1.332578 -0.229412,-1.88348 2.375133,-0.992531 4.749873,-1.984898 6.900116,-2.988687 2.150243,-1.003789 4.075485,-2.018821 5.350736,-3.459625 1.275252,-1.440804 1.900214,-3.307367 2.3811,-4.46971 0.480887,-1.162342 0.817753,-1.62029 0.838214,-0.769701 0.02046,0.850589 -0.275684,3.009629 -0.431247,4.575384 -0.155563,1.565755 -0.170563,2.538076 -0.182012,3.491346 -0.01145,0.95327 -0.01935,1.887382 -0.01216,2.788323 0.0072,0.900942 0.02945,1.768576 0.04804,2.526386 0.01858,0.75781 0.03348,1.405666 0.08943,2.094789 0.05595,0.689123 0.15292,1.419503 0.323488,1.960894 0.170568,0.541392 0.414736,0.893962 0.536812,1.070235 0.122076,0.176273 0.121966,0.176269 0.110858,0.357823 z"
       id="path930-6-6"
       inkscape:path-effect="#path-effect1058"
       inkscape:original-d="m 59.87994,69.872806 c -0.0225,0.363091 -0.0447,0.725932 -0.0666,1.088523 -0.53306,0.594874 -1.06579,1.189468 -1.59822,1.783833 -0.97702,0.771453 -1.95368,1.542619 -2.93008,2.313553 -1.86493,0.665353 -3.72948,1.330429 -5.59376,1.995254 -3e-4,2.5e-4 -3e-4,2.5e-4 0,0 -0.64405,0.03626 -1.28775,0.07221 -1.93118,0.107928 -0.82163,-0.983893 -1.64293,-1.968005 -2.46393,-2.952388 -0.37766,-1.026533 -0.75502,-2.053266 -1.13206,-3.080278 -0.0447,-1.187668 -0.0891,-2.375546 -0.1332,-3.563694 0.0662,-1.011746 0.13289,-2.023696 0.19979,-3.035929 -0.10533,-0.550647 -0.31524,-1.652705 -0.31524,-1.652705 0,0 4.74992,-1.984787 7.1254,-2.977594 1.925,-1.014804 3.85024,-2.029839 5.7758,-3.045134 0.62471,-1.866453 1.24967,-3.733017 1.87498,-5.599969 0.33658,-0.457725 0.67345,-0.91567 1.01065,-1.373914 -0.29647,2.15944 -0.59261,4.318481 -0.88847,6.477401 -0.0153,0.972621 -0.0303,1.944942 -0.045,2.917042 -0.008,0.934444 -0.0161,1.868554 -0.0237,2.802491 0.0219,0.867959 0.0442,1.735592 0.0668,2.603054 0.0146,0.648156 0.0295,1.296012 0.0447,1.943648 0.0966,0.730656 0.19364,1.461027 0.29092,2.191165 0.24386,0.352829 0.48803,0.705398 0.73251,1.057717 z"
       sodipodi:nodetypes="scccccccccccccccccccccss" />
    <path
       style="display:inline;fill:#f19869;fill-opacity:1;stroke:#f3a881;stroke-width:0.264583px;stroke-linecap:butt;stroke-linejoin:miter;stroke-opacity:1;filter:url(#filter965-1-4)"
       d="m 102.10886,112.60532 c 0.0885,0.29163 0.78174,2.57525 1.20987,3.4928 0.42812,0.91756 0.84911,1.3194 1.31794,1.7691 0.46883,0.44969 0.98549,0.94721 1.617,1.36815 0.63151,0.42093 1.37778,0.76536 2.32501,1.05236 0.94723,0.287 2.09535,0.51662 2.92016,0.57566 0.82482,0.059 1.3262,-0.0524 1.57495,0.0147 0.24876,0.0671 0.24473,0.31252 0.24271,0.43508 -0.002,0.12256 -0.002,0.12256 -0.56639,0.113 -0.56439,-0.01 -1.69338,-0.0287 -2.91396,-0.31999 -1.22059,-0.29129 -2.53275,-0.85484 -3.56616,-1.54371 -1.03342,-0.68887 -1.7878,-1.50299 -2.36601,-2.26409 -0.5782,-0.76111 -0.98004,-1.46911 -1.23495,-2.12492 -0.2549,-0.6558 -0.48143,-1.92376 -0.56505,-2.39179 -0.0836,-0.46803 -0.0836,-0.46803 -0.0836,-0.46803 0,0 0.52685,0.1693 0.52685,0.1693 0.11724,-0.18618 0.23446,-0.37231 0.14672,-0.40057 -0.0877,-0.0283 -0.55437,0.17846 -0.61397,0.20487 -0.0596,0.0264 -0.0596,0.0264 0.0289,0.31804 z"
       id="path936-0-7"
       inkscape:path-effect="#path-effect1104"
       inkscape:original-d="m 102.02033,112.31368 c 0.17717,0.58324 0.87038,2.86686 1.30526,4.29988 0.42126,0.40212 0.84224,0.80397 1.26296,1.20555 0.51694,0.49781 1.0336,0.99533 1.55,1.49259 0.74657,0.34472 1.49285,0.68915 2.23888,1.03333 1.14844,0.2299 2.29656,0.45953 3.44444,0.68889 0.50184,-0.11125 1.00322,-0.22266 1.50472,-0.33435 -0.004,0.24567 -0.008,0.49108 -0.0121,0.7362 1.9e-4,2.2e-4 1.9e-4,2.2e-4 0,0 -1.12877,-0.0189 -2.25776,-0.038 -3.38704,-0.0574 -1.31192,-0.56336 -2.62408,-1.12692 -3.93658,-1.69071 -0.75426,-0.81406 -1.50865,-1.62817 -2.26341,-2.44262 -0.4016,-0.70778 -0.80344,-1.41578 -1.20555,-2.12407 -0.10764,-0.6033 -0.33417,-1.87126 -0.50155,-2.80729 1.8e-4,2.1e-4 0,0 0,0 l 0.52685,0.1693 c 0,0 0.23469,-0.37216 0.35173,-0.55853 -0.29263,0.12994 -0.75927,0.33667 -0.87858,0.38923 z"
       sodipodi:nodetypes="sccccccccccccccsss"
       transform="matrix(-1.0990104,-0.25447343,-0.24014596,1.3892141,197.94429,-74.837278)" />
  </g>
  <g
     inkscape:groupmode="layer"
     id="layer3"
     inkscape:label="Heads"
     style="display:inline">
    <path
       style="fill:#cd9686;fill-opacity:1;stroke:#ce9787;stroke-width:0.275415px;stroke-linecap:butt;stroke-linejoin:miter;stroke-opacity:1"
       d="m 99.004478,49.211494 c -0.498307,1.051779 -1.494771,3.155027 -2.393274,4.814553 -0.898502,1.659527 -1.698963,2.875304 -2.59048,3.752222 -0.891517,0.876918 -1.873902,1.415055 -3.020058,1.863764 -1.146156,0.44871 -2.456006,0.808052 -3.893215,0.94484 -1.437209,0.136787 -3.00175,0.05112 -4.548034,-0.621607 -1.546283,-0.672729 -3.074445,-1.932451 -3.929471,-3.371157 -0.855026,-1.438706 -1.036949,-3.056562 -1.109732,-5.376 -0.07278,-2.319439 -0.0364,-5.340338 0.05456,-7.6879 0.09095,-2.347562 0.236491,-4.021667 0.36384,-5.427791 0.127348,-1.406125 0.236502,-2.544177 0.67304,-3.654561 0.436538,-1.110384 1.200618,-2.193059 2.474071,-2.956693 1.273452,-0.763634 3.056311,-1.207969 5.221284,-1.421364 2.164973,-0.213394 4.711913,-0.195761 6.149172,-0.147938 1.43726,0.04782 1.764722,0.125883 2.1651,0.642986 0.400377,0.517103 0.873378,1.473059 1.182647,2.608357 0.309269,1.135299 0.454806,2.449729 0.618542,3.865544 0.163736,1.415814 0.345658,2.93293 0.509392,4.415906 0.163734,1.482976 0.309275,2.931722 0.636709,3.849149 0.327433,0.917428 0.836822,1.303757 1.146113,1.549121 0.309291,0.245363 0.418447,0.349738 0.516474,0.544127 0.09803,0.194389 0.184852,0.478599 0.228241,0.62063 0.04339,0.142031 0.04339,0.142032 -0.454917,1.193812 z"
       id="path851"
       inkscape:path-effect="#path-effect853"
       inkscape:original-d="m 99.502784,48.159714 c -0.996744,2.103497 -1.993212,4.206743 -2.989388,6.309729 -0.80077,1.216081 -1.60124,2.431852 -2.40143,3.647402 -0.98272,0.538414 -1.9651,1.076559 -2.94723,1.614452 -1.31018,0.359612 -2.62003,0.718955 -3.92962,1.078047 -1.56489,-0.0854 -3.12943,-0.171084 -4.69372,-0.257002 -1.5285,-1.259516 -3.05666,-2.519241 -4.58457,-3.779237 -0.18222,-1.617667 -0.36414,-3.235523 -0.54578,-4.85366 0.0361,-3.020778 0.0725,-6.041677 0.10916,-9.062906 0.14526,-1.673914 0.2908,-3.348019 0.43662,-5.022424 0.10888,-1.137846 0.21802,-2.2759 0.32747,-3.414232 0.76382,-1.082461 1.5279,-2.165136 2.29228,-3.248084 1.78264,-0.444097 3.5655,-0.888427 5.34866,-1.333025 2.54674,0.01788 5.09368,0.03552 7.64094,0.0529 0.32719,0.07831 0.65465,0.156377 0.98241,0.234184 0.47274,0.956255 0.94573,1.912217 1.41904,2.867944 0.14525,1.314737 0.29079,2.629167 0.43662,3.943368 0.18164,1.517431 0.36356,3.034547 0.545778,4.551438 0.14525,1.449055 0.29079,2.897801 0.43663,4.346326 0.509118,0.386599 1.018507,0.772928 1.528188,1.159006 0.108865,0.104624 0.218022,0.208998 0.327465,0.313121 0.08654,0.284482 0.173365,0.568692 0.260477,0.852652 z"
       sodipodi:nodetypes="cccccccccccccccccccccc" />
    <path
       style="fill:#c6745c;fill-opacity:1;stroke:#c5745d;stroke-width:0.264583px;stroke-linecap:butt;stroke-linejoin:miter;stroke-opacity:1"
       d="m 133.18402,57.941395 c -0.36943,1.079201 -1.10819,3.237298 -1.84699,4.925279 -0.7388,1.687982 -1.47754,2.90581 -2.30032,3.785021 -0.82277,0.879211 -1.72941,1.41987 -2.78718,1.871521 -1.05778,0.451652 -2.26663,0.814357 -3.59301,0.954833 -1.32638,0.140477 -2.77029,0.05883 -4.19733,-0.609924 -1.42704,-0.668751 -2.83736,-1.924549 -3.62647,-3.361066 -0.7891,-1.436517 -0.957,-3.053905 -1.02417,-5.37316 -0.0672,-2.319255 -0.0336,-5.340247 0.0504,-7.688044 0.0839,-2.347797 0.21826,-4.022285 0.33579,-5.428731 0.11753,-1.406447 0.21827,-2.544782 0.62114,-3.656285 0.40288,-1.111503 1.10804,-2.196145 2.28329,-2.963044 1.17525,-0.766898 2.82063,-1.215809 4.81867,-1.434762 1.99804,-0.218953 4.34858,-0.207857 5.67502,-0.163721 1.32645,0.04414 1.62866,0.121356 1.99816,0.63744 0.3695,0.516084 0.80603,1.470827 1.09145,2.605323 0.28541,1.134495 0.41973,2.448558 0.57084,3.863952 0.15111,1.415394 0.31901,2.932043 0.47011,4.414597 0.15111,1.482553 0.28543,2.930925 0.58763,3.847518 0.30219,0.916593 0.7723,1.301614 1.05774,1.546186 0.28544,0.244571 0.38618,0.348667 0.38611,0.516726 -7e-5,0.168058 -0.1008,0.399757 -0.1511,0.515451 -0.0503,0.115694 -0.0503,0.11569 -0.41973,1.19489 z"
       id="path851-8"
       inkscape:path-effect="#path-effect906"
       inkscape:original-d="m 133.55345,56.862195 c -0.73902,2.158347 -1.47778,4.316443 -2.21627,6.474277 -0.73903,1.218137 -1.47777,2.435963 -2.21626,3.653567 -0.90694,0.540937 -1.81357,1.081604 -2.71997,1.622018 -1.20915,0.362976 -2.418,0.725681 -3.62661,1.088135 -1.44422,-0.08138 -2.88812,-0.163051 -4.33179,-0.244953 -1.41064,-1.255592 -2.82096,-2.511394 -4.23105,-3.767468 -0.16817,-1.617199 -0.33606,-3.234588 -0.5037,-4.852259 0.0333,-3.020871 0.0669,-6.041863 0.10074,-9.063186 0.13406,-1.674287 0.26838,-3.348775 0.40296,-5.023545 0.10048,-1.138125 0.20121,-2.276461 0.30222,-3.415069 0.70492,-1.084422 1.41008,-2.169066 2.11552,-3.253972 1.64518,-0.448673 3.29056,-0.897581 4.93623,-1.346756 2.35036,0.01135 4.7009,0.02245 7.05175,0.03329 0.30196,0.07747 0.60417,0.154697 0.90665,0.231662 0.43629,0.955042 0.87281,1.909789 1.30962,2.864302 0.13405,1.314362 0.26837,2.628424 0.40295,3.942244 0.16764,1.516971 0.33553,3.033621 0.5037,4.550039 0.13405,1.448683 0.26837,2.897055 0.40296,4.345206 0.46986,0.385292 0.93997,0.770313 1.41035,1.155082 0.10047,0.104345 0.20121,0.208439 0.30221,0.312282 -0.101,0.231967 -0.20174,0.463663 -0.30221,0.695108 z"
       inkscape:transform-center-x="20.054609"
       inkscape:transform-center-y="-7.850428" />
    <path
       style="display:inline;fill:#f5b694;fill-opacity:1;stroke:#f5b694;stroke-width:0.264583px;stroke-linecap:butt;stroke-linejoin:miter;stroke-opacity:1"
       d="m 59.089099,53.178328 c -0.36943,1.0792 -1.10819,3.237305 -1.846991,4.925287 -0.7388,1.687982 -1.477537,2.90581 -2.300313,3.785021 -0.822777,0.879211 -1.729411,1.419871 -2.787188,1.871522 -1.057776,0.451651 -2.266627,0.814357 -3.593009,0.954833 -1.326382,0.140476 -2.770283,0.05883 -4.197324,-0.609924 C 42.937232,63.436316 41.52691,62.180517 40.737805,60.744 39.9487,59.307484 39.780803,57.690095 39.71363,55.370835 c -0.06717,-2.31926 -0.03359,-5.340251 0.05035,-7.688048 0.08394,-2.347798 0.218258,-4.022276 0.335788,-5.428727 0.117531,-1.406452 0.218269,-2.544787 0.621147,-3.656291 0.402878,-1.111504 1.108038,-2.19614 2.283289,-2.96304 1.175251,-0.7669 2.82063,-1.215811 4.818669,-1.434764 1.998039,-0.218953 4.348579,-0.207857 5.675021,-0.163721 1.326443,0.04414 1.628654,0.121356 1.998156,0.637439 0.369501,0.516084 0.806031,1.470828 1.091447,2.605324 0.285416,1.134496 0.419731,2.448557 0.570842,3.863951 0.151111,1.415395 0.319007,2.932043 0.470116,4.414597 0.15111,1.482554 0.285427,2.930925 0.587623,3.847518 0.302196,0.916593 0.772305,1.301615 1.057746,1.546186 0.28544,0.244572 0.386178,0.348667 0.38611,0.516726 -6.8e-5,0.168058 -0.100803,0.399757 -0.151103,0.515452 -0.0503,0.115694 -0.0503,0.11569 -0.419731,1.194891 z"
       id="path851-0"
       inkscape:path-effect="#path-effect918"
       inkscape:original-d="m 59.45853,52.099127 c -0.73902,2.158347 -1.47778,4.316452 -2.21627,6.474287 -0.73903,1.218136 -1.47777,2.435962 -2.21626,3.653567 -0.90694,0.540936 -1.81357,1.081603 -2.71997,1.622018 -1.20915,0.362975 -2.418,0.725681 -3.62661,1.088134 -1.44422,-0.08138 -2.88812,-0.16305 -4.33179,-0.244952 -1.41064,-1.255593 -2.82096,-2.511395 -4.23105,-3.767469 -0.16817,-1.617198 -0.33606,-3.234588 -0.5037,-4.852259 0.0333,-3.020881 0.0669,-6.041872 0.10074,-9.063196 0.13406,-1.674287 0.26838,-3.348765 0.40296,-5.023545 0.10048,-1.138125 0.20121,-2.276461 0.30222,-3.415068 0.70492,-1.084426 1.41008,-2.169062 2.11552,-3.253972 1.64518,-0.448674 3.29056,-0.897581 4.93623,-1.346756 2.35036,0.01135 4.7009,0.02245 7.05175,0.03329 0.30196,0.07747 0.60417,0.154697 0.90665,0.231662 0.43629,0.955041 0.87281,1.909789 1.30962,2.864301 0.13405,1.314364 0.26837,2.628424 0.40295,3.942245 0.16764,1.516971 0.33553,3.03362 0.5037,4.550039 0.13405,1.448683 0.26837,2.897054 0.40296,4.345205 0.46986,0.385292 0.93997,0.770313 1.41035,1.155083 0.10047,0.104345 0.20121,0.208438 0.30221,0.312281 -0.101,0.231967 -0.20174,0.463664 -0.30221,0.695109 z" />
    <path
       style="fill:#575757;fill-opacity:1;stroke:#575757;stroke-width:0.264583px;stroke-linecap:butt;stroke-linejoin:miter;stroke-opacity:1"
       d="m 131.55947,50.703921 c -1.52887,-0.305711 -4.58642,-0.917093 -6.49727,-2.74297 -1.91084,-1.825876 -2.67521,-4.866333 -3.05742,-6.40779 -0.38222,-1.541457 -0.38222,-1.583927 -0.63705,-0.382087 -0.25483,1.20184 -0.76441,3.647845 -1.50768,5.321727 -0.74326,1.673882 -1.71995,2.575595 -2.86653,2.940708 -1.14657,0.365114 -2.46298,0.193891 -2.96599,0.0303 -0.503,-0.163593 -0.19249,-0.319732 -0.014,-1.226869 0.17847,-0.907138 0.22457,-2.565313 0.40892,-3.746329 0.18435,-1.181017 0.50708,-1.884871 0.95654,-2.538441 0.44946,-0.65357 1.02575,-1.256779 1.78644,-1.761718 0.7607,-0.504938 1.70581,-0.911453 2.85844,-1.149765 1.15263,-0.238313 2.51267,-0.308292 3.97649,-0.340248 1.46382,-0.03196 3.03132,-0.02587 4.70264,0.156535 1.67131,0.182409 3.44627,0.541168 5.46344,1.841639 2.01717,1.30047 4.27622,3.54252 5.56714,6.259671 1.29093,2.717151 1.61365,5.909004 2.25912,10.517878 0.64547,4.608874 1.61363,10.634496 2.20147,13.846709 0.58783,3.212213 0.7953,3.610998 0.43787,3.66818 -0.35742,0.05718 -1.27948,-0.227079 -2.0748,-0.449496 -0.79531,-0.222417 -1.4638,-0.382983 -2.45509,-0.427476 -0.99128,-0.04449 -2.30522,0.02703 -3.36562,0.106991 -1.0604,0.07997 -1.86721,0.168363 -2.39738,0.196777 -0.53016,0.02841 -0.78373,-0.0031 -0.96801,-0.239663 -0.18429,-0.236572 -0.29954,-0.678381 -0.63386,-1.476083 -0.33433,-0.797702 -0.88769,-1.95113 -1.11987,-3.616563 -0.23218,-1.665433 -0.14308,-3.843153 -0.054,-6.020644 0,0 0.27721,-0.610421 0.27721,-0.610421 0.36399,-0.975659 0.72786,-1.950986 1.10824,-2.148862 0.38037,-0.197877 0.77694,0.382267 0.96532,0.638015 0.18838,0.255747 0.1685,0.186898 0.43503,-0.05728 0.26653,-0.24418 0.81976,-0.663739 1.20023,-1.261919 0.38046,-0.598181 0.58792,-1.375023 0.47272,-2.139699 -0.1152,-0.764676 -0.55318,-1.516908 -0.97982,-1.773095 -0.42664,-0.256187 -0.84157,-0.01644 -1.22178,-0.0753 -0.3802,-0.05886 -0.72597,-0.416143 -1.02563,-0.956251 -0.29965,-0.540109 -0.55321,-1.263138 -0.68003,-1.855133 -0.12681,-0.591996 -0.12681,-1.053026 -0.16138,-1.676599 -0.0346,-0.623572 -0.10372,-1.409626 0.0797,-1.459878 0.18339,-0.05025 0.61929,0.635458 0.83722,0.978289 0.21794,0.34283 0.21795,0.342871 -1.31092,0.03716 z"
       id="path922"
       inkscape:path-effect="#path-effect924"
       inkscape:original-d="m 133.08834,51.009631 c -3.0578,-0.611129 -6.11535,-1.22251 -9.17262,-1.834141 -0.76467,-3.040337 -1.52904,-6.080794 -2.29316,-9.121576 -2.6e-4,-0.04221 -2.6e-4,-0.08468 0,-0.127397 -0.50986,2.446356 -1.01944,4.892361 -1.52877,7.338165 -0.977,0.902004 -1.95369,1.803718 -2.93014,2.705201 -1.31674,-0.170977 -2.63315,-0.342202 -3.94933,-0.51368 0.31026,-0.155891 0.62077,-0.312033 0.93155,-0.468427 0.0458,-1.657984 0.0919,-3.316159 0.13831,-4.974615 0.32247,-0.703625 0.64519,-1.407481 0.96819,-2.111608 0.57604,-0.602963 1.15233,-1.206174 1.72889,-1.809644 0.94489,-0.406276 1.89,-0.812789 2.83539,-1.219569 1.35983,-0.06972 2.71987,-0.139705 4.0802,-0.209942 1.5673,0.0063 3.1348,0.01242 4.7026,0.01825 1.77477,0.35903 3.54973,0.717791 5.325,1.076302 2.25887,2.242392 4.51792,4.484439 6.77727,6.726277 0.32247,3.192235 0.64519,6.384089 0.96819,9.575742 0.96793,6.026114 1.93609,12.051736 2.90454,18.077217 0.20721,0.399058 0.41467,0.797845 0.6224,1.196371 -0.92236,-0.284017 -1.84442,-0.568274 -2.76623,-0.852802 -0.66879,-0.160315 -1.33728,-0.320881 -2.00552,-0.481707 -1.31425,0.07178 -2.62819,0.143293 -3.94189,0.214558 -0.80709,0.08865 -1.6139,0.177051 -2.42045,0.265189 -0.25384,-0.03125 -0.50741,-0.06269 -0.76072,-0.09452 -0.11552,-0.441586 -0.23078,-0.883393 -0.34577,-1.325472 -0.55367,-1.153252 -1.10702,-2.306684 -1.66015,-3.460439 0.0888,-2.177272 0.26727,-6.532472 0.26727,-6.532472 l 0.27721,-0.610421 c 0,0 0.72771,-1.951043 1.09198,-2.926977 0.39633,0.580445 0.7929,1.160587 1.18977,1.74053 -0.0201,-0.06857 -0.04,-0.137411 -0.0596,-0.206504 0.55299,-0.41933 1.10623,-0.838882 1.65974,-1.258705 0.20721,-0.776621 0.41467,-1.553464 0.6224,-2.330579 -0.43826,-0.75201 -0.87624,-1.504241 -1.31396,-2.256734 -0.41521,0.240018 -0.83013,0.479774 -1.24481,0.719269 -0.34605,-0.357041 -0.69182,-0.714322 -1.03733,-1.071875 -0.25385,-0.722811 -0.50741,-1.445842 -0.76072,-2.169155 -2.6e-4,-0.460789 -2.6e-4,-0.921819 0,-1.38311 -0.0694,-0.785831 -0.13857,-1.571884 -0.20747,-2.358207 0.43566,0.685983 0.87156,1.371695 1.30773,2.057166 z"
       sodipodi:nodetypes="cccccccccccccccccccccccccccccccccccccccsc" />
    <path
       style="fill:#c6745c;fill-opacity:1;stroke:#c6745c;stroke-width:0.264583px;stroke-linecap:butt;stroke-linejoin:miter;stroke-opacity:1"
       d="m 132.2477,61.282107 c 0.35748,0.0052 1.07271,0.01546 1.68674,-0.220378 0.61402,-0.235841 1.12681,-0.718066 1.47103,-1.340854 0.34422,-0.622788 0.51965,-1.386148 0.5332,-2.060509 0.0136,-0.674361 -0.13489,-1.259566 -0.43191,-1.586688 -0.29702,-0.327122 -0.74234,-0.395926 -1.10673,-0.428277 -0.36439,-0.03235 -0.64778,-0.02828 -0.94467,-0.02467 -0.29689,0.0036 -0.60727,0.0068 -0.88381,0.71971 -0.27653,0.712928 -0.51944,2.13527 -0.62736,3.076299 -0.10793,0.941029 -0.0809,1.400737 -0.0674,1.63048 0.0135,0.229743 0.0135,0.229733 0.37094,0.234886 z"
       id="path926"
       inkscape:path-effect="#path-effect928"
       inkscape:original-d="m 131.89022,61.276954 c 0.71496,0.0106 1.43019,0.02091 2.14569,0.03093 0.51255,-0.481996 1.02534,-0.964224 1.53842,-1.446713 0.17517,-0.763129 0.3506,-1.526488 0.52629,-2.290109 -0.1487,-0.584981 -0.29715,-1.170183 -0.44533,-1.755666 -0.4456,-0.06853 -0.89092,-0.13735 -1.33599,-0.206417 -0.28366,0.0044 -0.56705,0.0084 -0.85018,0.0122 -0.31065,0.0035 -0.62103,0.0065 -0.93114,0.0095 -0.24318,1.422654 -0.48608,2.844997 -0.72873,4.267119 0.0267,0.45999 0.0537,0.919698 0.081,1.379166 z" />
    <path
       style="fill:#8ba1db;fill-opacity:1;stroke:#8ba1db;stroke-width:0.264583px;stroke-linecap:butt;stroke-linejoin:miter;stroke-opacity:1"
       d="m 93.442243,37.789185 c -3.155582,-0.05976 -9.466482,-0.179271 -12.561384,-0.131287 -3.094902,0.04798 -2.97412,0.263371 -3.004354,1.274036 -0.03023,1.010666 -0.211404,2.816346 -0.332156,3.672786 -0.120752,0.85644 -0.18114,0.763855 -0.437803,0.211802 -0.256664,-0.552052 -0.709587,-1.563568 -1.268216,-3.424097 -0.55863,-1.860528 -1.222923,-4.570004 -0.755048,-6.441656 0.467876,-1.871652 2.068215,-2.905397 3.864876,-3.706221 1.79666,-0.800823 3.789531,-1.368573 5.012596,-1.478896 1.223064,-0.110323 1.675993,0.236902 1.977992,0.533865 0.302,0.296963 0.452976,0.543555 0.634075,0.368527 0.181099,-0.175028 0.392466,-0.771896 1.705933,-1.000088 1.313468,-0.228192 3.729078,-0.08738 5.857975,0.527005 2.128896,0.614387 3.970796,1.702339 5.63164,4.264006 1.660841,2.561667 3.140401,6.596676 3.578171,9.691318 0.43776,3.094642 -0.16614,5.248577 -0.77007,7.236508 -0.60393,1.987932 -1.20783,3.809726 -1.88732,4.723023 -0.67949,0.913296 -1.434371,0.918366 -1.852799,0.880542 -0.418428,-0.03782 -0.500662,-0.118543 -0.438572,-0.736501 0.06209,-0.617957 0.268536,-1.773414 0.386494,-2.727042 0.117959,-0.953628 0.147381,-1.705338 0.206956,-2.141694 0.05957,-0.436356 0.149508,-0.557368 0.227713,-0.766009 0.0782,-0.208641 0.144535,-0.504922 0.167384,-0.730147 0.02285,-0.225225 0.0021,-0.379302 -0.0414,-0.509342 -0.04352,-0.130041 -0.109852,-0.235889 -0.21768,-0.349388 -0.107827,-0.113498 -0.257065,-0.234541 -0.382898,-0.319125 -0.125832,-0.08458 -0.22817,-0.132674 -0.381714,-0.323356 -0.153544,-0.190682 -0.35844,-0.524057 -0.540935,-1.032738 -0.182496,-0.508681 -0.342574,-1.19274 -0.480252,-1.936894 -0.137678,-0.744153 -0.252934,-1.54838 -0.35219,-2.396911 -0.09925,-0.848532 -0.182496,-1.741342 -0.217749,-2.23233 -0.03525,-0.490989 -0.02245,-0.580211 -0.04162,-0.686592 -0.01917,-0.106381 -0.07039,-0.229742 -0.09778,-0.274686 -0.02739,-0.04494 -0.03085,-0.01168 -0.03257,0.0048 -0.0017,0.01652 -0.0017,0.01651 -3.157293,-0.04325 z"
       id="path1025"
       inkscape:path-effect="#path-effect1027"
       inkscape:original-d="m 96.597826,37.848944 c -6.31117,-0.119258 -12.62207,-0.23877 -18.9327,-0.358538 0.12052,0.21565 0.2413,0.431038 0.36235,0.646171 -0.18144,1.805999 -0.36262,3.611678 -0.54352,5.417125 -0.0607,-0.09232 -0.12105,-0.18493 -0.18118,-0.277782 -0.45321,-1.011308 -0.90613,-2.022826 -1.3588,-3.034616 -0.66459,-2.70933 -1.32888,-5.418807 -1.99292,-8.128597 1.60014,-1.033531 3.20048,-2.067275 4.80112,-3.101298 1.99269,-0.567517 3.98556,-1.135269 5.97874,-1.703285 0.45268,0.347495 0.90561,0.694718 1.35881,1.041694 0.15071,0.246852 0.30169,0.493441 0.45293,0.739776 0.21111,-0.596632 0.42248,-1.193499 0.63411,-1.790632 2.41544,0.141074 4.83105,0.281883 7.24697,0.42244 1.84171,1.08825 3.683608,2.176204 5.525809,3.263922 1.479355,4.035425 2.958915,8.070434 4.438765,12.105267 -0.60419,2.154286 -1.20809,4.308221 -1.81174,6.461955 -0.60419,1.822125 -1.20809,3.64392 -1.81174,5.465494 -0.75517,0.0054 -1.510049,0.01043 -2.264678,0.01521 -0.08249,-0.08045 -0.164719,-0.161174 -0.246684,-0.242143 0.20619,-1.155245 0.412636,-2.310702 0.61935,-3.46644 0.02916,-0.75149 0.05858,-1.5032 0.08827,-2.255182 0.08967,-0.120754 0.179597,-0.241771 0.269793,-0.363028 0.06607,-0.29603 0.132397,-0.592312 0.198993,-0.888845 -0.02101,-0.15383 -0.04172,-0.307909 -0.06218,-0.46224 -0.0666,-0.105597 -0.132927,-0.211446 -0.198993,-0.317555 -0.149513,-0.120797 -0.298754,-0.241836 -0.447733,-0.363146 -0.102606,-0.04782 -0.204939,-0.09592 -0.307012,-0.144271 -0.205174,-0.33314 -0.410073,-0.666512 -0.614712,-1.000164 -0.160351,-0.683829 -0.320429,-1.367888 -0.480245,-2.052219 -0.115525,-0.804006 -0.23078,-1.608233 -0.345776,-2.412731 -0.08351,-0.89258 -0.166748,-1.78539 -0.249727,-2.678471 0.0125,-0.08896 0.0253,-0.178182 0.0384,-0.267657 -0.0515,-0.123116 -0.10272,-0.246479 -0.15368,-0.370101 -0.004,0.03355 -0.007,0.06686 -0.0104,0.0999 z" />
    <path
       style="fill:#a6533a;fill-opacity:1;stroke:#a8533b;stroke-width:0.264583px;stroke-linecap:butt;stroke-linejoin:miter;stroke-opacity:1"
       d="m 59.240427,52.791055 c 0.101027,-0.271577 0.303197,-0.815043 0.39079,-1.13478 0.08759,-0.319736 0.06047,-0.415505 -0.04127,-0.527467 -0.10175,-0.111963 -0.278018,-0.239865 -0.535599,-0.553481 -0.257581,-0.313617 -0.596547,-0.813013 -0.840618,-1.715961 -0.244072,-0.902948 -0.39322,-2.209564 -0.549151,-3.692702 -0.155931,-1.483139 -0.318635,-3.142726 -0.460993,-4.076339 -0.142358,-0.933613 -0.264389,-1.141064 -0.718803,-1.142619 -0.454414,-0.0016 -1.240824,0.202766 -1.864425,0.154817 -0.623602,-0.04795 -1.084599,-0.348029 -1.545592,-0.68201 -0.460994,-0.333981 -0.921993,-0.701859 -1.362768,-0.89957 -0.440774,-0.197712 -0.861105,-0.225265 -1.362789,-0.26909 -0.501685,-0.04382 -1.084705,-0.103911 -1.586273,-0.371441 -0.501567,-0.26753 -0.921888,-0.742521 -1.152387,-1.183978 -0.230498,-0.441458 -0.271174,-0.849578 -0.372877,-1.144595 -0.101702,-0.295018 -0.264405,-0.476694 -0.39322,-0.623356 -0.128815,-0.146662 -0.223718,-0.258281 -0.325526,-0.241192 -0.101807,0.01709 -0.21028,0.162631 -0.277976,0.763746 -0.0677,0.601115 -0.09483,1.657796 -0.345799,2.164545 -0.250971,0.50675 -0.725531,0.463835 -1.505212,0.85156 -0.779681,0.387726 -1.86438,1.205816 -2.487989,1.944406 -0.623609,0.738591 -0.786313,1.397555 -1.030445,1.958911 -0.244133,0.561356 -0.569541,1.025074 -0.752595,1.276562 -0.183054,0.251487 -0.22375,0.290831 -0.291401,0.152943 -0.06765,-0.137889 -0.162561,-0.452895 -0.237157,-1.390924 -0.0746,-0.938028 -0.128832,-2.499095 -0.01361,-3.979961 0.11522,-1.480867 0.399954,-2.8815 1.064235,-3.903488 0.66428,-1.021987 1.708302,-1.665166 2.338856,-2.152589 0.630554,-0.487422 0.847494,-0.819171 1.620318,-1.139314 0.772823,-0.320143 2.101583,-0.628435 2.793262,-0.591777 0.691679,0.03666 0.745911,0.418103 1.003397,0.616395 0.257486,0.198293 0.718486,0.213639 1.233725,-0.04026 0.515239,-0.253903 1.084708,-0.777296 1.905069,-0.953513 0.82036,-0.176217 1.8915,-0.005 3.010165,0.283108 1.118665,0.288078 2.284716,0.692983 2.888178,1.201347 0.603463,0.508364 0.644139,1.119865 0.881323,1.473382 0.237184,0.353516 0.671063,0.449313 1.152524,0.838255 0.481461,0.388942 1.010253,1.070925 1.410225,1.531667 0.399971,0.460742 0.671148,0.700271 1.132064,0.878318 0.460917,0.178047 1.111737,0.294625 1.505065,1.35192 0.393328,1.057295 0.528915,3.054949 0.745784,4.11285 0.216869,1.057901 0.515164,1.176304 0.861012,2.279467 0.345848,1.103163 0.739053,3.190742 0.705005,4.226777 -0.03405,1.036036 -0.495047,1.020689 -0.772901,1.350568 -0.277853,0.329878 -0.372767,1.004657 -0.420204,1.823391 -0.04744,0.818734 -0.04744,1.781404 -0.474683,2.248399 -0.427245,0.466995 -1.281445,0.438555 -2.027142,0.298449 -0.745697,-0.140107 -1.382958,-0.39182 -1.863687,-0.593734 -0.480728,-0.201913 -0.804919,-0.354015 -1.129005,-0.506068 0,0 0,0 0,0 0,0 0,0 0,0 0,0 8e-5,7e-6 0.101107,-0.27157 z"
       id="path1033"
       inkscape:path-effect="#path-effect1035"
       inkscape:original-d="m 59.1394,53.062632 c 0.20191,-0.543208 0.40407,-1.086677 0.60651,-1.630398 -0.0274,-0.09561 -0.0545,-0.191384 -0.0814,-0.28745 -0.17653,-0.127647 -0.3528,-0.255545 -0.5288,-0.383704 -0.33925,-0.499165 -0.67822,-0.998559 -1.01693,-1.498236 -0.14941,-1.306394 -0.29856,-2.613009 -0.44745,-3.919896 -0.16297,-1.659395 -0.32568,-3.318982 -0.48812,-4.97886 -0.1223,-0.207192 -0.24433,-0.414644 -0.36609,-0.622348 -0.78671,0.204589 -1.57312,0.408908 -2.35928,0.612976 -0.46128,-0.299847 -0.92228,-0.599924 -1.38302,-0.900263 -0.46128,-0.367637 -0.92228,-0.735514 -1.38302,-1.103652 -0.4206,-0.02728 -0.84093,-0.05485 -1.26099,-0.08266 -0.58332,-0.05983 -1.16634,-0.11992 -1.74912,-0.180262 -0.4206,-0.474754 -0.84092,-0.949747 -1.26099,-1.425004 -0.0409,-0.407874 -0.0816,-0.815992 -0.12203,-1.224375 -0.16298,-0.181433 -0.32568,-0.363112 -0.48813,-0.545053 -0.0952,-0.111378 -0.19009,-0.223008 -0.28474,-0.334895 -0.10873,0.145795 -0.21721,0.291332 -0.32541,0.436613 -0.0274,1.05698 -0.0545,2.113662 -0.0814,3.170105 -0.47484,-0.04266 -0.9494,-0.08558 -1.4237,-0.128747 -1.08501,0.81838 -2.16971,1.636469 -3.25417,2.454325 -0.16297,0.659245 -0.32568,1.318208 -0.48812,1.97693 -0.32569,0.463997 -0.6511,0.927714 -0.97625,1.391189 -0.0409,0.03954 -0.0816,0.07888 -0.12203,0.117978 -0.0952,-0.31477 -0.1901,-0.629779 -0.28474,-0.94506 -0.0545,-1.560864 -0.10874,-3.12193 -0.16271,-4.683287 0.28448,-1.400428 0.56921,-2.801062 0.85422,-4.201976 1.0438,-0.642953 2.08782,-1.286135 3.13214,-1.929584 0.21668,-0.331504 0.43362,-0.663253 0.65083,-0.995261 1.32855,-0.308048 2.65731,-0.616339 3.98636,-0.924892 0.054,0.381722 0.1082,0.763171 0.1627,1.144375 0.46076,0.0156 0.92176,0.03095 1.38303,0.04604 0.56922,-0.523158 1.13869,-1.04655 1.70844,-1.570208 1.07092,0.171511 2.14206,0.342759 3.21349,0.513753 1.16584,0.405179 2.33189,0.810086 3.49823,1.214744 0.0404,0.611778 0.0811,1.223278 0.12203,1.834535 0.43364,0.09606 0.86752,0.191853 1.30167,0.287397 0.52855,0.682266 1.05734,1.36425 1.58641,2.045992 0.27092,0.239793 0.5421,0.479318 0.81354,0.718596 0.65058,0.116839 1.3014,0.233416 1.9525,0.349741 0.13533,1.99799 0.27092,3.995644 0.40677,5.993077 0.29804,0.118662 0.596336,0.237063 0.894896,0.355212 0.39296,2.087923 0.78616,4.175503 1.17964,6.262872 -0.46128,-0.0151 -0.92228,-0.03044 -1.38302,-0.04604 -0.0952,0.675061 -0.1901,1.349842 -0.284746,2.024371 -2.6e-4,0.962971 -2.6e-4,1.925641 0,2.88808 -0.8545,-0.02819 -1.7087,-0.05663 -2.56265,-0.08532 -0.63756,-0.251465 -1.27482,-0.503181 -1.91183,-0.755158 -0.32447,-0.151852 -0.64866,-0.303955 -0.9726,-0.456319 0,0 -2.7e-4,2.61e-4 0,0 0,0 -2.7e-4,2.61e-4 0,0 z" />
  </g>
</svg>
