<svg height="512" viewBox="0 0 64 64" width="512" xmlns="http://www.w3.org/2000/svg"><g id="guitar-guitarist-sofa-music-man"><g fill="#bddbff"><path d="m61 33v8l-8-1v-6z"/><path d="m48 61h6l1-6h-8z"/><path d="m42 27v8h-3a4 4 0 0 0 -4-4h-2a2.015 2.015 0 0 1 -2 2h-7a2.006 2.006 0 0 1 -2-2v-4a4 4 0 0 1 4-4h12a4 4 0 0 1 4 4z"/><path d="m53 47v2h-13v12h-16v-12h-14v-2a2.006 2.006 0 0 1 2-2h12a4 4 0 1 1 8 0 4 4 0 0 1 4-4 3.921 3.921 0 0 1 2.06.58 3.664 3.664 0 0 1 .77.59 4.025 4.025 0 0 1 1.17 2.83h11a2.006 2.006 0 0 1 2 2z"/><path d="m29 9 1 2 5-2 3 2h2a8 8 0 1 0 -16 0h2z"/><circle cx="28" cy="37" r="4"/><path d="m17 55h-8l1 6h6z"/></g><path d="m61.66 32.25a.958.958 0 0 0 -.78-.24l-8 1a1 1 0 0 0 -.88.99h-9v-7a5 5 0 0 0 -5-5h-3v-2.68a7.01 7.01 0 0 0 4-6.32v-1h1a1 1 0 0 0 1-1 9 9 0 0 0 -18 0 1 1 0 0 0 1 1h1v1a7.01 7.01 0 0 0 4 6.32v2.68h-3a5 5 0 0 0 -5 5v1h-2a7.008 7.008 0 0 0 -7 7v4a6.97 6.97 0 0 0 2.11 5h-2.11a2.974 2.974 0 0 0 -2 .78v-11.78a3.009 3.009 0 0 0 -3-3h-2a3.009 3.009 0 0 0 -3 3v18a5 5 0 0 0 5 5h1.15l.86 5.16a1 1 0 0 0 .99.84h6a1 1 0 0 0 .99-.84l.86-5.16h5.15v5a1 1 0 0 0 1 1h16a1 1 0 0 0 1-1v-5h5.15l.86 5.16a1 1 0 0 0 .99.84h6a1 1 0 0 0 .99-.84l.86-5.16h1.15a5 5 0 0 0 5-5v-18a.981.981 0 0 0 -.34-.75zm-9.66 3.75v2h-12v-2zm-26.93-26a7 7 0 0 1 13.86 0h-.63l-2.75-1.83a.972.972 0 0 0 -.92-.1l-4.15 1.66-.59-1.18a1.024 1.024 0 0 0 -.63-.52 1 1 0 0 0 -.81.14l-2.75 1.83zm1.93 3v-1.46l1.61-1.08.5.99a.981.981 0 0 0 .89.55.971.971 0 0 0 .37-.07l4.51-1.81 2.12 1.42v1.46a5 5 0 0 1 -10 0zm6 6.92v2.08h-2v-2.08a6.29 6.29 0 0 0 2 0zm-10 7.08a3.009 3.009 0 0 1 3-3h12a3.009 3.009 0 0 1 3 3v7h-1.1a5.017 5.017 0 0 0 -4.9-4h-1.18a3.01 3.01 0 0 0 -2.82-2h-4v-2h-2v3a1 1 0 0 0 1 1h5a1 1 0 0 1 0 2h-7a1 1 0 0 1 -1-1zm8 10a3 3 0 1 1 -3-3 3.009 3.009 0 0 1 3 3zm-15.85 23h-4.3l-.67-4h5.64zm7.85-6h-16a3.009 3.009 0 0 1 -3-3v-18a1 1 0 0 1 1-1h2a1 1 0 0 1 1 1v16a1 1 0 0 0 1 1h14zm0-6h-12v-1a1 1 0 0 1 1-1h11zm.1-4h-4.1a5 5 0 0 1 -5-5v-4a5 5 0 0 1 5-5h2v1a3.009 3.009 0 0 0 3 3h.03a4.924 4.924 0 0 0 -1.03 3 4.994 4.994 0 0 0 2.03 4 4.977 4.977 0 0 0 -1.93 3zm7.9 16h-6v-15a3 3 0 0 1 6 0zm1-17.97a5.028 5.028 0 0 0 -1.03-1.03 4.93 4.93 0 0 0 .89-7.14 3.027 3.027 0 0 0 1.96-1.86h1.18a3.009 3.009 0 0 1 3 3v4a3.013 3.013 0 0 1 -.32 1.31 4.89 4.89 0 0 0 -5.68 1.72zm7 17.97h-6v-15a3 3 0 0 1 6 0zm1.9-16a5.034 5.034 0 0 0 -1.5-2.65 5.319 5.319 0 0 0 .49-1.35h12.11a1 1 0 0 0 .88.99l1.12.14v5.87a3.009 3.009 0 0 0 -3-3zm11.1 3v1h-11v-2h10a1 1 0 0 1 1 1zm1.15 13h-4.3l-.67-4h5.64zm6.85-9a3.009 3.009 0 0 1 -3 3h-16v-4h14a1 1 0 0 0 1-1v-7.62l4 .5zm0-11.13-6-.75v-4.24l6-.75z" fill="#57a4ff"/><path d="m18 35h2v4h-2z" fill="#57a4ff"/></g></svg>