<svg height="512" viewBox="0 0 64 64" width="512" xmlns="http://www.w3.org/2000/svg"><g id="treadmill_auto-man-exersise-run-walk" data-name="treadmill auto-man-exersise-run-walk"><g fill="#bddbff"><path d="m3 53h58v4h-58z"/><path d="m47 27h12v6h-12z"/><path d="m32 5a2.015 2.015 0 0 1 -2 2h-7v4l-1.45 2.89a2 2 0 0 1 -1.79 1.11h-.76a2.006 2.006 0 0 1 -2-2v-6a4 4 0 0 1 4-4h9a2.006 2.006 0 0 1 2 2z"/><path d="m31.8 44h-6.66l-2.14-5v5h-6v-23h12v17z"/></g><path d="m61 52h-2v-18a1 1 0 0 0 1-1v-5.88l1.97-7.88a1.022 1.022 0 0 0 -.18-.86 1 1 0 0 0 -.79-.38h-4a1 1 0 0 0 -.97.76l-1.81 7.24h-7.22a1 1 0 0 0 -1 1v3h-6v-2a1 1 0 0 0 -.43-.82l-10-7a.826.826 0 0 0 -.13-.07c-.03-.01-.05-.03-.08-.04a.919.919 0 0 0 -.33-.06c-.01 0-.02-.01-.03-.01h-3v-2h1a3.009 3.009 0 0 0 3-3v-1h1a.984.984 0 0 0 .88-.53.963.963 0 0 0 -.05-1.02l-1.83-2.75v-1.7a3 3 0 0 0 0-6h-9a5 5 0 0 0 -5 5v6a3.01 3.01 0 0 0 2 2.82v4.18h-1a1 1 0 0 0 -1 1v26.81l-1.68 4.19h-11.32a1 1 0 0 0 -1 1v4a1 1 0 0 0 1 1h3v3a1 1 0 0 0 1 1h8a1 1 0 0 0 1-1v-3h32v3a1 1 0 0 0 1 1h8a1 1 0 0 0 1-1v-3h3a1 1 0 0 0 1-1v-4a1 1 0 0 0 -1-1zm-3.22-32h1.94l-1.5 6h-1.94zm-9.78 8h10v4h-10zm9 6v18h-2v-18zm-27-11.08 8 5.6v3.56l-8-5.6zm0 6 8.43 5.9a.988.988 0 0 0 .57.18 1.039 1.039 0 0 0 .46-.11 1.02 1.02 0 0 0 .54-.89v-2h6v1a1 1 0 0 0 1 1h6v18h-16.36l-6.64-14.22zm-3.34 16.08h4.5l3.27 7h-4.77zm.82 7h-5l1.45-3.63a.937.937 0 0 0 .07-.37v-4.13zm1.52-40a1 1 0 0 0 -1 1v2a1 1 0 0 1 -1 1h-2a1 1 0 0 0 -1 1v3h-4v-4.02a2.981 2.981 0 0 0 2.45-1.64l1.44-2.89a1 1 0 0 0 .11-.45v-3h4v2a.967.967 0 0 0 .17.55l.96 1.45zm-11-5a3.009 3.009 0 0 1 3-3h9a1 1 0 0 1 0 2h-7a1 1 0 0 0 -1 1v3.76l-1.34 2.69a.992.992 0 0 1 -.9.55h-.76a1 1 0 0 1 -1-1zm0 15h10v10h-10zm0 12h10v4a.99.99 0 0 0 .09.42l2.14 4.58h-4.43l-1.88-4.39a1 1 0 0 0 -1.92.39v4h-4zm-.07 14.37a.937.937 0 0 0 .07-.37v-3h4v2.81l-1.68 4.19h-3.84zm-3.93 11.63h-6v-2h6zm42 0h-6v-2h6zm4-4h-56v-2h56z" fill="#57a4ff"/></g></svg>