<svg height="512" viewBox="0 0 64 64" width="512" xmlns="http://www.w3.org/2000/svg"><g id="shampoo-hair-wash-bubbles-woman"><circle cx="58" cy="6" fill="#bddbff" r="3"/><circle cx="54" cy="15" fill="#bddbff" r="2"/><circle cx="48" cy="7" fill="#bddbff" r="2"/><path d="m20 51h24v10h-24z" fill="#bddbff"/><circle cx="16" cy="7" fill="#bddbff" r="2"/><circle cx="11" cy="15" fill="#bddbff" r="2"/><circle cx="6" cy="6" fill="#bddbff" r="3"/><g fill="#57a4ff"><path d="m53.83 23.17a4 4 0 0 0 -6.83 2.83v14h-11v-2.76a11.025 11.025 0 0 0 7-10.24v-2c0-.34-.02-.67-.05-1h.05a5 5 0 0 0 1.98-9.59c.01-.14.02-.27.02-.41a5.021 5.021 0 0 0 -4.08-4.92 5.034 5.034 0 0 0 -4.34-4.05 4.977 4.977 0 0 0 -9.27.28 5 5 0 0 0 -3.22 3.77 5 5 0 0 0 -4.09 4.92v.1a5 5 0 0 0 1 9.9h.05c-.03.33-.05.66-.05 1v2a11.025 11.025 0 0 0 7 10.24v2.76h-11v-14a4 4 0 0 0 -8 0v17a5 5 0 0 0 5 5h4a1 1 0 0 1 1 1v12a1 1 0 0 0 1 1h24a1 1 0 0 0 1-1v-12a1 1 0 0 1 1-1h4a5 5 0 0 0 5-5v-17a4 4 0 0 0 -1.17-2.83zm-32.83-1.17a3 3 0 0 1 -.02-6c.03 0 .14.01.17.01a1.014 1.014 0 0 0 .8-.4.97.97 0 0 0 .16-.87 2.949 2.949 0 0 1 -.11-.74 3.009 3.009 0 0 1 3-3 1 1 0 0 0 1-1 3 3 0 0 1 2.33-2.91 1.016 1.016 0 0 0 .76-.76 2.98 2.98 0 0 1 5.8-.07 1 1 0 0 0 .97.75c.06 0 .12-.01.14-.01a3.009 3.009 0 0 1 3 3 1 1 0 0 0 1 1 2.953 2.953 0 0 1 2.87 3.82 1 1 0 0 0 .1.79 1.055 1.055 0 0 0 .65.46 3 3 0 0 1 -.62 5.93 3.253 3.253 0 0 1 -.44-.03 10.981 10.981 0 0 0 -21.12 0 3.253 3.253 0 0 1 -.44.03zm2 5v-2a9 9 0 0 1 18 0v2a9 9 0 0 1 -18 0zm20 33h-22v-4h22zm0-6h-22v-2h22zm-21-4a5 5 0 0 1 8 0zm12 0a5 5 0 0 1 8 0zm19-7a3.009 3.009 0 0 1 -3 3h-4a3 3 0 0 0 -2.89 2.24 6.957 6.957 0 0 0 -11.11 1.19 6.957 6.957 0 0 0 -11.11-1.19 3 3 0 0 0 -2.89-2.24h-4a3.009 3.009 0 0 1 -3-3v-17a2.006 2.006 0 0 1 2-2 2.015 2.015 0 0 1 2 2v15a1 1 0 0 0 1 1h13a1 1 0 0 0 1-1v-3.19a10.621 10.621 0 0 0 4 0v3.19a1 1 0 0 0 1 1h13a1 1 0 0 0 1-1v-15a2.006 2.006 0 0 1 2-2 2.015 2.015 0 0 1 2 2z"/><path d="m10 6a4 4 0 1 0 -4 4 4 4 0 0 0 4-4zm-4 2a2 2 0 1 1 2-2 2 2 0 0 1 -2 2z"/><path d="m58 2a4 4 0 1 0 4 4 4 4 0 0 0 -4-4zm0 6a2 2 0 1 1 2-2 2 2 0 0 1 -2 2z"/><path d="m16 10a3 3 0 1 0 -3-3 3 3 0 0 0 3 3zm0-4a1 1 0 1 1 -1 1 1 1 0 0 1 1-1z"/><path d="m14 15a3 3 0 1 0 -3 3 3 3 0 0 0 3-3zm-4 0a1 1 0 1 1 1 1 1 1 0 0 1 -1-1z"/><path d="m54 12a3 3 0 1 0 3 3 3 3 0 0 0 -3-3zm0 4a1 1 0 1 1 1-1 1 1 0 0 1 -1 1z"/><path d="m48 10a3 3 0 1 0 -3-3 3 3 0 0 0 3 3zm0-4a1 1 0 1 1 -1 1 1 1 0 0 1 1-1z"/><path d="m26 24h4v2h-4z"/><path d="m34 24h4v2h-4z"/><path d="m30 31h4v2h-4z"/></g></g></svg>