<?xml version="1.0" encoding="UTF-8" standalone="no"?> <svg width="100" height="100" viewBox="0 0 100 100" fill="none" xmlns="http://www.w3.org/2000/svg">
<rect width="100" height="100" fill="white"/>
<path fill-rule="evenodd" clip-rule="evenodd" d="M66.9388 42.954C69.2501 46.4271 70.597 50.5971 70.597 55.0818C70.597 67.1869 60.7839 77 48.6788 77C36.5737 77 26.7606 67.1869 26.7606 55.0818C26.7606 50.5971 28.1074 46.4271 30.4187 42.954C30.6514 33.0688 38.7376 25.1269 48.6788 25.1269C58.6199 25.1269 66.7062 33.0688 66.9388 42.954Z" fill="#FFDFC4"/>
<circle cx="32.0588" cy="53.5066" r="1.89463" fill="#F87880" fill-opacity="0.46"/>
<circle cx="64.057" cy="53.5066" r="1.89463" fill="#F87880" fill-opacity="0.46"/>
<path fill-rule="evenodd" clip-rule="evenodd" d="M47.7044 47.8508C46.446 47.8508 45.426 48.8708 45.426 50.1292V53.2756H45.3175C43.6996 53.2756 42.3881 54.5871 42.3881 56.2049C42.3881 57.8228 43.6996 59.1343 45.3174 59.1343H50.3083C51.9261 59.1343 53.2377 57.8228 53.2377 56.2049C53.2377 54.5871 51.9261 53.2756 50.3083 53.2756H49.9828V50.1292C49.9828 48.8708 48.9627 47.8508 47.7044 47.8508Z" fill="#E1B692"/>
<rect x="33.9254" y="40.3284" width="11.2836" height="4.70149" rx="1" fill="white"/>
<rect x="50.8507" y="40.3284" width="11.2836" height="4.70149" rx="1" fill="white"/>
<rect x="42.3881" y="66.6567" width="11.2836" height="1.8806" rx="0.940298" fill="white"/>
<circle cx="41.4478" cy="45.9701" r="1.8806" fill="#38101C"/>
<circle cx="54.6119" cy="45.9701" r="1.8806" fill="#38101C"/>
<path fill-rule="evenodd" clip-rule="evenodd" d="M42.4368 68.5373L53.6229 68.5373C53.655 68.7811 53.6716 69.0298 53.6716 69.2824C53.6716 72.3983 51.1457 74.9242 48.0298 74.9242C44.9175 74.9242 42.3937 72.404 42.3881 69.2929L42.3881 69.272C42.3885 69.023 42.4051 68.7778 42.4368 68.5373Z" fill="#F5AC97"/>
<path fill-rule="evenodd" clip-rule="evenodd" d="M43.2396 72.1566C43.8474 70.557 45.762 69.3889 48.0298 69.3889C50.2977 69.3889 52.2123 70.557 52.82 72.1566C52.2123 73.7562 50.2977 74.9242 48.0298 74.9242C45.762 74.9242 43.8474 73.7562 43.2396 72.1566Z" fill="#FB5F32"/>
<circle cx="24.9925" cy="42.6791" r="7.99254" fill="#EEEEEE"/>
<circle cx="72.0075" cy="42.6791" r="7.99254" fill="#EEEEEE"/>
<circle cx="24.0746" cy="53.0448" r="5.19403" fill="#FFDFC4"/>
<circle cx="72.9702" cy="53.0448" r="5.19403" fill="#FFDFC4"/>
</svg>
