<?xml version="1.0" encoding="UTF-8" standalone="no"?> <svg width="100" height="100" viewBox="0 0 100 100" fill="none" xmlns="http://www.w3.org/2000/svg">
<rect width="100" height="100" fill="white"/>
<path fill-rule="evenodd" clip-rule="evenodd" d="M74.3973 58.2096C71.9482 68.9695 62.3224 77 50.8209 77C39.1919 77 29.4804 68.7904 27.1657 57.8508C26.5465 58.2385 25.8143 58.4627 25.0299 58.4627C22.8042 58.4627 21 56.6585 21 54.4328C21 52.2072 22.8042 50.403 25.0299 50.403C25.6362 50.403 26.2112 50.5369 26.727 50.7767C27.7648 38.3796 38.1556 28.6418 50.8209 28.6418C63.3943 28.6418 73.7262 38.2389 74.8908 50.5074C75.1848 50.4391 75.4912 50.403 75.806 50.403C78.0316 50.403 79.8358 52.2072 79.8358 54.4328C79.8358 56.6585 78.0316 58.4627 75.806 58.4627C75.3104 58.4627 74.8358 58.3732 74.3973 58.2096Z" fill="#FFDFC4"/>
<circle cx="40.7463" cy="50.806" r="2.01493" fill="#38101C"/>
<rect x="35.5075" y="43.1493" width="11.2836" height="4.02985" rx="2.01493" fill="#38101C"/>
<circle cx="59.2836" cy="50.806" r="2.01493" fill="#38101C"/>
<rect x="54.0448" y="43.1492" width="11.2836" height="4.02985" rx="2.01493" fill="#38101C"/>
<path d="M49.3702 58.4627C48.3909 58.4627 47.597 57.6688 47.597 56.6896L47.597 52.0149C47.597 50.6796 48.6796 49.597 50.0149 49.597V49.597C51.3503 49.597 52.4328 50.6796 52.4328 52.0149L52.4328 56.6896C52.4328 57.6688 51.639 58.4627 50.6597 58.4627L49.3702 58.4627Z" fill="#E1B692"/>
<path fill-rule="evenodd" clip-rule="evenodd" d="M49.0845 64.1045C48.407 64.1045 47.8578 64.6537 47.8578 65.3312C47.8578 65.5022 47.8927 65.6649 47.9559 65.8128C47.3071 65.845 46.791 66.3812 46.791 67.038C46.791 67.7155 47.3403 68.2647 48.0178 68.2647H52.818C53.4955 68.2647 54.0448 67.7155 54.0448 67.038C54.0448 66.4163 53.5823 65.9026 52.9825 65.8222C53.0483 65.6719 53.0847 65.5058 53.0847 65.3312C53.0847 64.6537 52.5355 64.1045 51.858 64.1045H49.0845Z" fill="#F5AC97"/>
<circle cx="35.1045" cy="58.0597" r="2.01493" fill="#F87880" fill-opacity="0.46"/>
<circle cx="64.9254" cy="58.0597" r="2.01493" fill="#F87880" fill-opacity="0.46"/>
<path fill-rule="evenodd" clip-rule="evenodd" d="M54.0381 32.4048C53.1568 33.0778 52.0557 33.4776 50.8612 33.4776C49.6143 33.4776 48.4691 33.042 47.5696 32.3146C46.9749 32.822 46.2035 33.1284 45.3605 33.1284C43.4798 33.1284 41.9552 31.6038 41.9552 29.7231C41.9552 27.8425 43.4798 26.3179 45.3605 26.3179C45.5668 26.3179 45.7688 26.3363 45.965 26.3714C46.7173 24.4002 48.6257 23 50.8612 23C53.3338 23 55.4063 24.713 55.9568 27.0169C55.9754 27.0166 55.994 27.0164 56.0127 27.0164C57.7005 27.0164 59.0687 28.3846 59.0687 30.0724C59.0687 31.7602 57.7005 33.1284 56.0127 33.1284C55.2599 33.1284 54.5707 32.8562 54.0381 32.4048Z" fill="#38101C"/>
</svg>
