<?xml version="1.0" encoding="UTF-8" standalone="no"?> <svg width="100" height="100" viewBox="0 0 100 100" fill="none" xmlns="http://www.w3.org/2000/svg">
<rect width="100" height="100" fill="white"/>
<circle cx="48.1587" cy="44.1587" r="27.1587" fill="#38101C"/>
<rect x="32.0476" y="37.254" width="32.2222" height="45.1111" rx="16.1111" fill="#FFDFC4"/>
<path fill-rule="evenodd" clip-rule="evenodd" d="M45.8571 30.8095C45.8571 39.199 53.2764 46 62.4286 46C71.5807 46 79 39.199 79 30.8095L45.8571 30.8095Z" fill="#38101C"/>
<circle cx="28.3651" cy="62.1111" r="5.52381" fill="#FFDFC4"/>
<circle cx="64.2698" cy="62.1111" r="5.52381" fill="#FFDFC4"/>
<path d="M44 70.2075C44 68.9884 44.9884 68 46.2075 68H50.7925C52.0116 68 53 68.9884 53 70.2075V70.2075H44V70.2075Z" fill="white"/>
<path fill-rule="evenodd" clip-rule="evenodd" d="M52.9611 69.6981C52.9868 69.8926 53 70.091 53 70.2924C53 72.7777 50.9853 74.7925 48.5 74.7925C46.0147 74.7925 44 72.7777 44 70.2925C44 70.091 44.0132 69.8926 44.0389 69.6981L52.9611 69.6981Z" fill="#F5AC97"/>
<path fill-rule="evenodd" clip-rule="evenodd" d="M44.6792 72.4151C45.164 71.041 46.6911 70.0377 48.5 70.0377C50.3089 70.0377 51.836 71.041 52.3208 72.4151C51.836 73.7891 50.3089 74.7924 48.5 74.7924C46.6911 74.7924 45.164 73.7891 44.6792 72.4151Z" fill="#FB5F32"/>
<circle cx="37.0149" cy="61.0149" r="2.01493" fill="#F87880" fill-opacity="0.46"/>
<circle cx="61.0448" cy="61.0149" r="2.01493" fill="#F87880" fill-opacity="0.46"/>
<rect x="36" y="45" width="9" height="3" rx="1.5" fill="#38101C"/>
<rect x="53" y="45" width="9" height="3" rx="1.5" fill="#38101C"/>
<circle cx="43" cy="52" r="2" fill="#38101C"/>
<circle cx="55" cy="52" r="2" fill="#38101C"/>
<path fill-rule="evenodd" clip-rule="evenodd" d="M52.4158 55.6601C52.7849 56.3731 53 57.2293 53 58.15C53 60.6353 51.433 62.65 49.5 62.65C47.567 62.65 46 60.6353 46 58.15C46 57.2293 46.2151 56.3731 46.5842 55.6601C46.6213 53.6305 47.9126 52 49.5 52C51.0874 52 52.3787 53.6305 52.4158 55.6601Z" fill="#E1B692"/>
</svg>
