<?xml version="1.0" encoding="UTF-8" standalone="no"?> <svg width="100" height="100" viewBox="0 0 100 100" fill="none" xmlns="http://www.w3.org/2000/svg">
<rect width="100" height="100" fill="white"/>
<ellipse cx="51" cy="43" rx="25" ry="22" fill="#381021"/>
<path fill-rule="evenodd" clip-rule="evenodd" d="M71.2292 61.0449C69.1548 70.1589 61.0014 76.9609 51.2592 76.9609C41.4091 76.9609 33.1831 70.0072 31.2225 60.7409C30.698 61.0694 30.0779 61.2593 29.4134 61.2593C27.5282 61.2593 26 59.731 26 57.8458C26 55.9607 27.5282 54.4324 29.4134 54.4324C29.927 54.4324 30.414 54.5458 30.8509 54.749C31.73 44.2483 40.5314 36 51.2592 36C61.9093 36 70.6607 44.1291 71.6472 54.5209C71.8962 54.463 72.1558 54.4324 72.4224 54.4324C74.3076 54.4324 75.8358 55.9607 75.8358 57.8458C75.8358 59.731 74.3076 61.2593 72.4224 61.2593C72.0027 61.2593 71.6006 61.1835 71.2292 61.0449Z" fill="#FFDFC4"/>
<circle cx="42.8611" cy="56.8611" r="1.86111" fill="#38101C"/>
<circle cx="58.8611" cy="56.8611" r="1.86111" fill="#38101C"/>
<circle cx="25" cy="26" r="10" fill="#381021"/>
<circle cx="51" cy="40" r="10" fill="#381021"/>
<circle cx="77" cy="26" r="10" fill="#381021"/>
<path d="M44.134 50.5C44.5189 49.8333 45.4811 49.8333 45.866 50.5L46.7321 52C47.117 52.6667 46.6358 53.5 45.866 53.5H44.134C43.3642 53.5 42.883 52.6667 43.2679 52L44.134 50.5Z" fill="#38101C"/>
<path d="M56.134 50.5C56.5189 49.8333 57.4811 49.8333 57.866 50.5L58.7321 52C59.117 52.6667 58.6358 53.5 57.866 53.5H56.134C55.3642 53.5 54.883 52.6667 55.2679 52L56.134 50.5Z" fill="#38101C"/>
<circle cx="37.8946" cy="61.8946" r="1.89463" fill="#F87880" fill-opacity="0.46"/>
<circle cx="64.8946" cy="61.8946" r="1.89463" fill="#F87880" fill-opacity="0.46"/>
<circle cx="49" cy="61" r="1" fill="#E1B692"/>
<circle cx="53" cy="61" r="1" fill="#E1B692"/>
<circle cx="51" cy="70" r="4" fill="#F5AC97"/>
<path fill-rule="evenodd" clip-rule="evenodd" d="M54.5765 70.0656C54.5963 70.2158 54.6066 70.369 54.6066 70.5246C54.6066 72.444 53.0506 74 51.1312 74C49.2117 74 47.6557 72.444 47.6557 70.5246C47.6557 70.369 47.666 70.2158 47.6858 70.0656L54.5765 70.0656Z" fill="#F5AC97"/>
<path fill-rule="evenodd" clip-rule="evenodd" d="M48 72.2951C48.3858 71.3097 49.6013 70.5901 51.041 70.5901C52.4807 70.5901 53.6962 71.3097 54.082 72.2951C53.6962 73.2805 52.4807 74 51.041 74C49.6013 74 48.3858 73.2805 48 72.2951Z" fill="#FB5F32"/>
<path fill-rule="evenodd" clip-rule="evenodd" d="M55 69.0164L47 69.0164C47.2608 67.3139 48.9522 66 51 66C53.0478 66 54.7392 67.3139 55 69.0164Z" fill="white"/>
</svg>
