<?xml version="1.0" encoding="UTF-8" standalone="no"?> <svg width="100" height="100" viewBox="0 0 100 100" fill="none" xmlns="http://www.w3.org/2000/svg">
<rect width="100" height="100" fill="white"/>
<path d="M75 57C75 70.8071 63.8071 82 50 82C36.1929 82 25 70.8071 25 57C25 43.1929 36.1929 32 50 32C63.8071 32 75 43.1929 75 57Z" fill="#FFDFC4"/>
<circle cx="31.0149" cy="61.0149" r="2.01493" fill="#F87880" fill-opacity="0.46"/>
<circle cx="66.8358" cy="61.0149" r="2.01493" fill="#F87880" fill-opacity="0.46"/>
<circle cx="42" cy="53" r="2" fill="#38101C"/>
<circle cx="57" cy="53" r="2" fill="#38101C"/>
<path fill-rule="evenodd" clip-rule="evenodd" d="M61.6095 32.289C64.0849 29.8284 65.572 26.6736 65.572 23.2338C65.572 15.3727 57.8053 9 48.2245 9C38.6438 9 30.8771 15.3727 30.8771 23.2338C30.8771 27.3772 33.0347 31.1071 36.4784 33.7083C29.9063 39.6192 27.1456 46.476 30.3126 49.035C33.4847 51.5983 41.4025 48.8792 47.9976 42.9619C48.61 42.4124 49.1895 41.8546 49.7343 41.2929C50.3512 41.8043 51.0025 42.3084 51.686 42.8012C58.9977 48.0727 67.2159 50.0424 70.0418 47.2006C72.8677 44.3588 69.2312 37.7817 61.9195 32.5102C61.8163 32.4358 61.713 32.3621 61.6095 32.289Z" fill="#38101C"/>
<rect x="39" y="47" width="8" height="2" rx="1" fill="#38101C"/>
<rect x="54" y="47" width="8" height="2" rx="1" fill="#38101C"/>
<circle cx="23.0299" cy="54.0299" r="4.02985" fill="#FFDFC4"/>
<circle cx="76.0299" cy="54.0299" r="4.02985" fill="#FFDFC4"/>
<path d="M45 72.2075C45 70.9884 45.9884 70 47.2075 70H51.7925C53.0116 70 54 70.9884 54 72.2075V72.2075H45V72.2075Z" fill="white"/>
<path fill-rule="evenodd" clip-rule="evenodd" d="M53.9611 71.6981C53.9868 71.8926 54 72.091 54 72.2924C54 74.7777 51.9853 76.7925 49.5 76.7925C47.0147 76.7925 45 74.7777 45 72.2925C45 72.091 45.0132 71.8926 45.0389 71.6981L53.9611 71.6981Z" fill="#F5AC97"/>
<path fill-rule="evenodd" clip-rule="evenodd" d="M45.6792 74.4151C46.164 73.041 47.6911 72.0377 49.5 72.0377C51.3089 72.0377 52.836 73.041 53.3208 74.4151C52.836 75.7891 51.3089 76.7924 49.5 76.7924C47.6911 76.7924 46.164 75.7891 45.6792 74.4151Z" fill="#FB5F32"/>
<path d="M47.7679 59C48.5377 57.6667 50.4623 57.6667 51.2321 59L52.5311 61.25C53.3009 62.5833 52.3386 64.25 50.799 64.25H48.201C46.6614 64.25 45.6991 62.5833 46.4689 61.25L47.7679 59Z" fill="#E1B692"/>
</svg>
